<svg width="324" height="63" viewBox="0 0 324 63" fill="none"
    xmlns="http://www.w3.org/2000/svg">
    <rect width="324" height="63" rx="12" fill="white"/>
    <path d="M57.504 28V16.8H62.16C62.8 16.8 63.376 16.9547 63.888 17.264C64.4107 17.5733 64.8267 17.9947 65.136 18.528C65.4453 19.0613 65.6 19.6587 65.6 20.32C65.6 20.992 65.4453 21.6 65.136 22.144C64.8267 22.6773 64.4107 23.104 63.888 23.424C63.376 23.744 62.8 23.904 62.16 23.904H59.584V28H57.504ZM59.584 21.984H62.016C62.2827 21.984 62.5227 21.9093 62.736 21.76C62.96 21.6107 63.136 21.4133 63.264 21.168C63.4027 20.9227 63.472 20.6453 63.472 20.336C63.472 20.0267 63.4027 19.7547 63.264 19.52C63.136 19.2747 62.96 19.0827 62.736 18.944C62.5227 18.7947 62.2827 18.72 62.016 18.72H59.584V21.984ZM67.6233 28V19.568H69.5913V28H67.6233ZM68.5833 17.776C68.1886 17.776 67.8793 17.68 67.6553 17.488C67.4419 17.2853 67.3353 17.0027 67.3353 16.64C67.3353 16.2987 67.4473 16.0213 67.6713 15.808C67.8953 15.5947 68.1993 15.488 68.5833 15.488C68.9886 15.488 69.2979 15.5893 69.5113 15.792C69.7353 15.984 69.8473 16.2667 69.8473 16.64C69.8473 16.9707 69.7353 17.2427 69.5113 17.456C69.2873 17.6693 68.9779 17.776 68.5833 17.776ZM72.0372 28V19.568H73.9572L73.9892 21.296L73.6212 21.488C73.7278 21.104 73.9358 20.7573 74.2452 20.448C74.5545 20.128 74.9225 19.872 75.3492 19.68C75.7758 19.488 76.2132 19.392 76.6612 19.392C77.3012 19.392 77.8345 19.52 78.2612 19.776C78.6985 20.032 79.0238 20.416 79.2372 20.928C79.4612 21.44 79.5732 22.08 79.5732 22.848V28H77.6052V22.992C77.6052 22.5653 77.5465 22.2133 77.4292 21.936C77.3118 21.648 77.1305 21.44 76.8852 21.312C76.6398 21.1733 76.3412 21.1093 75.9892 21.12C75.7012 21.12 75.4345 21.168 75.1892 21.264C74.9545 21.3493 74.7465 21.4773 74.5652 21.648C74.3945 21.808 74.2558 21.9947 74.1492 22.208C74.0532 22.4213 74.0052 22.656 74.0052 22.912V28H73.0292C72.8372 28 72.6558 28 72.4852 28C72.3252 28 72.1758 28 72.0372 28ZM86.1991 28V26.544L92.4551 18.192L92.9511 18.752H86.6151V16.8H94.8551V18.24L88.6311 26.608L88.1191 26.08H95.0311V28H86.1991ZM100.903 28.16C100.018 28.16 99.2335 27.9733 98.5509 27.6C97.8789 27.2267 97.3509 26.72 96.9669 26.08C96.5935 25.4293 96.4069 24.688 96.4069 23.856C96.4069 23.1947 96.5135 22.592 96.7269 22.048C96.9402 21.504 97.2335 21.0347 97.6069 20.64C97.9909 20.2347 98.4442 19.9253 98.9669 19.712C99.5002 19.488 100.082 19.376 100.711 19.376C101.266 19.376 101.783 19.4827 102.263 19.696C102.743 19.9093 103.159 20.2027 103.511 20.576C103.863 20.9387 104.13 21.376 104.311 21.888C104.503 22.3893 104.594 22.9387 104.583 23.536L104.567 24.224H97.7349L97.3669 22.88H102.919L102.663 23.152V22.8C102.631 22.4693 102.524 22.1813 102.343 21.936C102.162 21.68 101.927 21.4827 101.639 21.344C101.362 21.1947 101.052 21.12 100.711 21.12C100.188 21.12 99.7455 21.2213 99.3829 21.424C99.0309 21.6267 98.7642 21.92 98.5829 22.304C98.4015 22.6773 98.3109 23.1467 98.3109 23.712C98.3109 24.256 98.4229 24.7307 98.6469 25.136C98.8815 25.5413 99.2069 25.856 99.6229 26.08C100.05 26.2933 100.546 26.4 101.111 26.4C101.506 26.4 101.868 26.336 102.199 26.208C102.53 26.08 102.887 25.8507 103.271 25.52L104.247 26.88C103.959 27.1467 103.628 27.376 103.255 27.568C102.892 27.7493 102.508 27.8933 102.103 28C101.698 28.1067 101.298 28.16 100.903 28.16ZM109.46 28.16C108.767 28.16 108.138 27.968 107.572 27.584C107.007 27.2 106.554 26.6773 106.212 26.016C105.871 25.3547 105.7 24.6027 105.7 23.76C105.7 22.9173 105.871 22.1653 106.212 21.504C106.554 20.8427 107.018 20.3253 107.604 19.952C108.191 19.5787 108.852 19.392 109.588 19.392C110.015 19.392 110.404 19.456 110.756 19.584C111.108 19.7013 111.418 19.872 111.684 20.096C111.951 20.32 112.17 20.576 112.34 20.864C112.522 21.152 112.644 21.4613 112.708 21.792L112.276 21.68V19.568H114.26V28H112.26V25.984L112.724 25.904C112.65 26.192 112.511 26.4747 112.308 26.752C112.116 27.0187 111.871 27.2587 111.572 27.472C111.284 27.6747 110.959 27.84 110.596 27.968C110.244 28.096 109.866 28.16 109.46 28.16ZM110.004 26.416C110.463 26.416 110.868 26.304 111.22 26.08C111.572 25.856 111.844 25.5467 112.036 25.152C112.239 24.7467 112.34 24.2827 112.34 23.76C112.34 23.248 112.239 22.7947 112.036 22.4C111.844 22.0053 111.572 21.696 111.22 21.472C110.868 21.248 110.463 21.136 110.004 21.136C109.546 21.136 109.14 21.248 108.788 21.472C108.447 21.696 108.18 22.0053 107.988 22.4C107.796 22.7947 107.7 23.248 107.7 23.76C107.7 24.2827 107.796 24.7467 107.988 25.152C108.18 25.5467 108.447 25.856 108.788 26.08C109.14 26.304 109.546 26.416 110.004 26.416ZM116.508 28V16.16H118.492V28H116.508ZM126.321 28V17.424H128.289V28H126.321ZM124.657 21.392V19.568H130.129V21.392H124.657ZM135.356 28.16C134.513 28.16 133.761 27.9733 133.1 27.6C132.438 27.216 131.916 26.6933 131.532 26.032C131.148 25.3707 130.956 24.6187 130.956 23.776C130.956 22.9333 131.148 22.1813 131.532 21.52C131.916 20.8587 132.438 20.3413 133.1 19.968C133.761 19.584 134.513 19.392 135.356 19.392C136.188 19.392 136.934 19.584 137.596 19.968C138.257 20.3413 138.774 20.8587 139.148 21.52C139.532 22.1813 139.724 22.9333 139.724 23.776C139.724 24.6187 139.532 25.3707 139.148 26.032C138.774 26.6933 138.257 27.216 137.596 27.6C136.934 27.9733 136.188 28.16 135.356 28.16ZM135.356 26.416C135.814 26.416 136.22 26.2987 136.572 26.064C136.934 25.8293 137.217 25.5147 137.42 25.12C137.633 24.7253 137.734 24.2773 137.724 23.776C137.734 23.264 137.633 22.8107 137.42 22.416C137.217 22.0213 136.934 21.712 136.572 21.488C136.22 21.2533 135.814 21.136 135.356 21.136C134.897 21.136 134.481 21.2533 134.108 21.488C133.745 21.712 133.462 22.0267 133.26 22.432C133.057 22.8267 132.956 23.2747 132.956 23.776C132.956 24.2773 133.057 24.7253 133.26 25.12C133.462 25.5147 133.745 25.8293 134.108 26.064C134.481 26.2987 134.897 26.416 135.356 26.416ZM147.368 31.68L149.16 27.536L149.176 28.848L145.016 19.568H147.288L149.608 25.072C149.683 25.2107 149.757 25.3973 149.832 25.632C149.907 25.856 149.971 26.08 150.024 26.304L149.624 26.432C149.699 26.2293 149.779 26.016 149.864 25.792C149.949 25.5573 150.029 25.3173 150.104 25.072L152.088 19.568H154.376L150.856 28L149.416 31.68H147.368ZM159.254 28.16C158.411 28.16 157.659 27.9733 156.998 27.6C156.336 27.216 155.814 26.6933 155.43 26.032C155.046 25.3707 154.854 24.6187 154.854 23.776C154.854 22.9333 155.046 22.1813 155.43 21.52C155.814 20.8587 156.336 20.3413 156.998 19.968C157.659 19.584 158.411 19.392 159.254 19.392C160.086 19.392 160.832 19.584 161.494 19.968C162.155 20.3413 162.672 20.8587 163.046 21.52C163.43 22.1813 163.622 22.9333 163.622 23.776C163.622 24.6187 163.43 25.3707 163.046 26.032C162.672 26.6933 162.155 27.216 161.494 27.6C160.832 27.9733 160.086 28.16 159.254 28.16ZM159.254 26.416C159.712 26.416 160.118 26.2987 160.47 26.064C160.832 25.8293 161.115 25.5147 161.318 25.12C161.531 24.7253 161.632 24.2773 161.622 23.776C161.632 23.264 161.531 22.8107 161.318 22.416C161.115 22.0213 160.832 21.712 160.47 21.488C160.118 21.2533 159.712 21.136 159.254 21.136C158.795 21.136 158.379 21.2533 158.006 21.488C157.643 21.712 157.36 22.0267 157.158 22.432C156.955 22.8267 156.854 23.2747 156.854 23.776C156.854 24.2773 156.955 24.7253 157.158 25.12C157.36 25.5147 157.643 25.8293 158.006 26.064C158.379 26.2987 158.795 26.416 159.254 26.416ZM168.261 28.16C167.653 28.16 167.125 28.0267 166.677 27.76C166.229 27.4827 165.887 27.0933 165.653 26.592C165.418 26.08 165.301 25.472 165.301 24.768V19.568H167.269V24.352C167.269 24.8 167.338 25.184 167.477 25.504C167.615 25.8133 167.818 26.0533 168.085 26.224C168.351 26.3947 168.671 26.48 169.045 26.48C169.322 26.48 169.573 26.4373 169.797 26.352C170.031 26.256 170.234 26.128 170.405 25.968C170.575 25.7973 170.709 25.6 170.805 25.376C170.901 25.1413 170.949 24.8907 170.949 24.624V19.568H172.917V28H170.997L170.965 26.24L171.317 26.048C171.189 26.4533 170.97 26.816 170.661 27.136C170.362 27.4453 170.005 27.696 169.589 27.888C169.173 28.0693 168.73 28.16 168.261 28.16ZM175.174 28V19.568H177.11L177.142 22.256L176.87 21.648C176.987 21.2213 177.19 20.8373 177.478 20.496C177.766 20.1547 178.096 19.888 178.47 19.696C178.854 19.4933 179.254 19.392 179.67 19.392C179.851 19.392 180.022 19.408 180.182 19.44C180.352 19.472 180.491 19.5093 180.598 19.552L180.07 21.712C179.952 21.648 179.808 21.5947 179.638 21.552C179.467 21.5093 179.296 21.488 179.126 21.488C178.859 21.488 178.603 21.5413 178.358 21.648C178.123 21.744 177.915 21.8827 177.734 22.064C177.552 22.2453 177.408 22.4587 177.302 22.704C177.206 22.9387 177.158 23.2053 177.158 23.504V28H175.174ZM191.168 28.16C190.795 28.16 190.427 28.1067 190.064 28C189.712 27.8827 189.392 27.728 189.104 27.536C188.816 27.344 188.576 27.1307 188.384 26.896C188.192 26.6507 188.064 26.4053 188 26.16L188.464 25.952L188.416 27.968H186.512V16.16H188.48V21.52L188.128 21.36C188.181 21.104 188.299 20.864 188.48 20.64C188.672 20.4053 188.907 20.1973 189.184 20.016C189.461 19.824 189.765 19.6747 190.096 19.568C190.427 19.4507 190.763 19.392 191.104 19.392C191.861 19.392 192.528 19.5787 193.104 19.952C193.691 20.3253 194.149 20.8427 194.48 21.504C194.821 22.1653 194.992 22.9173 194.992 23.76C194.992 24.6133 194.827 25.3707 194.496 26.032C194.165 26.6933 193.707 27.216 193.12 27.6C192.544 27.9733 191.893 28.16 191.168 28.16ZM190.752 26.432C191.2 26.432 191.6 26.32 191.952 26.096C192.304 25.8613 192.581 25.5467 192.784 25.152C192.987 24.7467 193.088 24.2827 193.088 23.76C193.088 23.248 192.987 22.7947 192.784 22.4C192.592 22.0053 192.32 21.696 191.968 21.472C191.616 21.248 191.211 21.136 190.752 21.136C190.293 21.136 189.888 21.248 189.536 21.472C189.184 21.696 188.907 22.0053 188.704 22.4C188.501 22.7947 188.4 23.248 188.4 23.76C188.4 24.2827 188.501 24.7467 188.704 25.152C188.907 25.5467 189.184 25.8613 189.536 26.096C189.888 26.32 190.293 26.432 190.752 26.432ZM196.697 28V19.568H198.633L198.665 22.256L198.393 21.648C198.51 21.2213 198.713 20.8373 199.001 20.496C199.289 20.1547 199.619 19.888 199.993 19.696C200.377 19.4933 200.777 19.392 201.193 19.392C201.374 19.392 201.545 19.408 201.705 19.44C201.875 19.472 202.014 19.5093 202.121 19.552L201.593 21.712C201.475 21.648 201.331 21.5947 201.161 21.552C200.99 21.5093 200.819 21.488 200.649 21.488C200.382 21.488 200.126 21.5413 199.881 21.648C199.646 21.744 199.438 21.8827 199.257 22.064C199.075 22.2453 198.931 22.4587 198.825 22.704C198.729 22.9387 198.681 23.2053 198.681 23.504V28H196.697ZM206.878 28.16C206.035 28.16 205.283 27.9733 204.622 27.6C203.961 27.216 203.438 26.6933 203.054 26.032C202.67 25.3707 202.478 24.6187 202.478 23.776C202.478 22.9333 202.67 22.1813 203.054 21.52C203.438 20.8587 203.961 20.3413 204.622 19.968C205.283 19.584 206.035 19.392 206.878 19.392C207.71 19.392 208.457 19.584 209.118 19.968C209.779 20.3413 210.297 20.8587 210.67 21.52C211.054 22.1813 211.246 22.9333 211.246 23.776C211.246 24.6187 211.054 25.3707 210.67 26.032C210.297 26.6933 209.779 27.216 209.118 27.6C208.457 27.9733 207.71 28.16 206.878 28.16ZM206.878 26.416C207.337 26.416 207.742 26.2987 208.094 26.064C208.457 25.8293 208.739 25.5147 208.942 25.12C209.155 24.7253 209.257 24.2773 209.246 23.776C209.257 23.264 209.155 22.8107 208.942 22.416C208.739 22.0213 208.457 21.712 208.094 21.488C207.742 21.2533 207.337 21.136 206.878 21.136C206.419 21.136 206.003 21.2533 205.63 21.488C205.267 21.712 204.985 22.0267 204.782 22.432C204.579 22.8267 204.478 23.2747 204.478 23.776C204.478 24.2773 204.579 24.7253 204.782 25.12C204.985 25.5147 205.267 25.8293 205.63 26.064C206.003 26.2987 206.419 26.416 206.878 26.416ZM214.628 28L211.796 19.568L213.812 19.552L215.7 25.568L215.348 25.536L217.396 20.832H218.58L220.676 25.536L220.26 25.584L222.164 19.568H224.18L221.332 28H219.924L217.764 22.944L218.068 22.976L216.02 28H214.628ZM228.317 28.16C227.57 28.16 226.898 28.0373 226.301 27.792C225.714 27.536 225.234 27.1733 224.861 26.704L226.141 25.6C226.461 25.9627 226.818 26.224 227.213 26.384C227.608 26.544 228.024 26.624 228.461 26.624C228.642 26.624 228.802 26.6027 228.941 26.56C229.09 26.5173 229.218 26.4533 229.325 26.368C229.432 26.2827 229.512 26.1867 229.565 26.08C229.629 25.9627 229.661 25.8347 229.661 25.696C229.661 25.44 229.565 25.2373 229.373 25.088C229.266 25.0133 229.096 24.9333 228.861 24.848C228.637 24.7627 228.344 24.6773 227.981 24.592C227.405 24.4427 226.925 24.272 226.541 24.08C226.157 23.8773 225.858 23.6533 225.645 23.408C225.464 23.2053 225.325 22.976 225.229 22.72C225.144 22.464 225.101 22.1867 225.101 21.888C225.101 21.5147 225.181 21.1787 225.341 20.88C225.512 20.5707 225.741 20.304 226.029 20.08C226.317 19.856 226.653 19.6853 227.037 19.568C227.421 19.4507 227.821 19.392 228.237 19.392C228.664 19.392 229.074 19.4453 229.469 19.552C229.874 19.6587 230.248 19.8133 230.589 20.016C230.941 20.208 231.24 20.4427 231.485 20.72L230.397 21.92C230.194 21.728 229.97 21.5573 229.725 21.408C229.49 21.2587 229.25 21.1413 229.005 21.056C228.76 20.96 228.53 20.912 228.317 20.912C228.114 20.912 227.933 20.9333 227.773 20.976C227.613 21.008 227.48 21.0613 227.373 21.136C227.266 21.2107 227.181 21.3067 227.117 21.424C227.064 21.5307 227.037 21.6587 227.037 21.808C227.048 21.936 227.08 22.0587 227.133 22.176C227.197 22.2827 227.282 22.3733 227.389 22.448C227.506 22.5227 227.682 22.608 227.917 22.704C228.152 22.8 228.456 22.8907 228.829 22.976C229.352 23.1147 229.789 23.2693 230.141 23.44C230.493 23.6107 230.77 23.808 230.973 24.032C231.176 24.224 231.32 24.448 231.405 24.704C231.49 24.96 231.533 25.2427 231.533 25.552C231.533 26.0533 231.389 26.5013 231.101 26.896C230.824 27.2907 230.44 27.6 229.949 27.824C229.469 28.048 228.925 28.16 228.317 28.16ZM237.169 28.16C236.284 28.16 235.5 27.9733 234.817 27.6C234.145 27.2267 233.617 26.72 233.233 26.08C232.86 25.4293 232.673 24.688 232.673 23.856C232.673 23.1947 232.78 22.592 232.993 22.048C233.206 21.504 233.5 21.0347 233.873 20.64C234.257 20.2347 234.71 19.9253 235.233 19.712C235.766 19.488 236.348 19.376 236.977 19.376C237.532 19.376 238.049 19.4827 238.529 19.696C239.009 19.9093 239.425 20.2027 239.777 20.576C240.129 20.9387 240.396 21.376 240.577 21.888C240.769 22.3893 240.86 22.9387 240.849 23.536L240.833 24.224H234.001L233.633 22.88H239.185L238.929 23.152V22.8C238.897 22.4693 238.79 22.1813 238.609 21.936C238.428 21.68 238.193 21.4827 237.905 21.344C237.628 21.1947 237.318 21.12 236.977 21.12C236.454 21.12 236.012 21.2213 235.649 21.424C235.297 21.6267 235.03 21.92 234.849 22.304C234.668 22.6773 234.577 23.1467 234.577 23.712C234.577 24.256 234.689 24.7307 234.913 25.136C235.148 25.5413 235.473 25.856 235.889 26.08C236.316 26.2933 236.812 26.4 237.377 26.4C237.772 26.4 238.134 26.336 238.465 26.208C238.796 26.08 239.153 25.8507 239.537 25.52L240.513 26.88C240.225 27.1467 239.894 27.376 239.521 27.568C239.158 27.7493 238.774 27.8933 238.369 28C237.964 28.1067 237.564 28.16 237.169 28.16ZM242.542 28V19.568H244.478L244.51 22.256L244.238 21.648C244.356 21.2213 244.558 20.8373 244.846 20.496C245.134 20.1547 245.465 19.888 245.838 19.696C246.222 19.4933 246.622 19.392 247.038 19.392C247.22 19.392 247.39 19.408 247.55 19.44C247.721 19.472 247.86 19.5093 247.966 19.552L247.438 21.712C247.321 21.648 247.177 21.5947 247.006 21.552C246.836 21.5093 246.665 21.488 246.494 21.488C246.228 21.488 245.972 21.5413 245.726 21.648C245.492 21.744 245.284 21.8827 245.102 22.064C244.921 22.2453 244.777 22.4587 244.67 22.704C244.574 22.9387 244.526 23.2053 244.526 23.504V28H242.542Z" fill="#52606D"/>
    <path d="M60.966 48.13C60.3333 48.13 59.7527 48.0173 59.224 47.792C58.6953 47.5667 58.236 47.246 57.846 46.83C57.456 46.4053 57.1527 45.907 56.936 45.335C56.728 44.763 56.624 44.1347 56.624 43.45C56.624 42.8 56.7367 42.1977 56.962 41.643C57.196 41.0797 57.5167 40.5857 57.924 40.161C58.3313 39.7363 58.8037 39.407 59.341 39.173C59.8783 38.939 60.459 38.822 61.083 38.822C61.525 38.822 61.954 38.8913 62.37 39.03C62.7947 39.16 63.176 39.3463 63.514 39.589C63.8607 39.823 64.1423 40.0917 64.359 40.395L63.423 41.37C63.1717 41.1187 62.916 40.9107 62.656 40.746C62.4047 40.5727 62.1447 40.4427 61.876 40.356C61.616 40.2693 61.3517 40.226 61.083 40.226C60.6583 40.226 60.2597 40.3083 59.887 40.473C59.523 40.629 59.2023 40.85 58.925 41.136C58.6563 41.422 58.444 41.7643 58.288 42.163C58.132 42.553 58.054 42.982 58.054 43.45C58.054 43.944 58.1277 44.3947 58.275 44.802C58.431 45.2007 58.6477 45.543 58.925 45.829C59.2023 46.115 59.5317 46.336 59.913 46.492C60.303 46.6393 60.732 46.713 61.2 46.713C61.486 46.713 61.7677 46.674 62.045 46.596C62.3223 46.518 62.5823 46.4053 62.825 46.258C63.0677 46.1107 63.2887 45.9373 63.488 45.738L64.19 46.882C63.9907 47.116 63.7177 47.3283 63.371 47.519C63.033 47.7097 62.6517 47.8613 62.227 47.974C61.811 48.078 61.3907 48.13 60.966 48.13ZM65.7748 48V38.38H67.1138V48H65.7748ZM69.2221 48V41.175H70.5611V48H69.2221ZM69.8721 39.667C69.5861 39.667 69.3651 39.5933 69.2091 39.446C69.0531 39.2987 68.9751 39.0907 68.9751 38.822C68.9751 38.5707 69.0531 38.367 69.2091 38.211C69.3738 38.055 69.5948 37.977 69.8721 37.977C70.1581 37.977 70.3791 38.0507 70.5351 38.198C70.6911 38.3453 70.7691 38.5533 70.7691 38.822C70.7691 39.0733 70.6868 39.277 70.5221 39.433C70.3661 39.589 70.1495 39.667 69.8721 39.667ZM75.5079 48.13C74.8752 48.13 74.3076 47.974 73.8049 47.662C73.3109 47.35 72.9166 46.9253 72.6219 46.388C72.3359 45.8507 72.1929 45.2483 72.1929 44.581C72.1929 43.9137 72.3359 43.3113 72.6219 42.774C72.9166 42.2367 73.3109 41.812 73.8049 41.5C74.3076 41.188 74.8752 41.032 75.5079 41.032C76.1146 41.032 76.6649 41.1577 77.1589 41.409C77.6616 41.6517 78.0429 41.9853 78.3029 42.41L77.5619 43.32C77.4232 43.1207 77.2456 42.9387 77.0289 42.774C76.8122 42.6093 76.5826 42.4793 76.3399 42.384C76.0972 42.2887 75.8632 42.241 75.6379 42.241C75.2219 42.241 74.8492 42.345 74.5199 42.553C74.1992 42.7523 73.9436 43.0297 73.7529 43.385C73.5622 43.7403 73.4669 44.139 73.4669 44.581C73.4669 45.023 73.5666 45.4217 73.7659 45.777C73.9652 46.1237 74.2296 46.401 74.5589 46.609C74.8882 46.817 75.2522 46.921 75.6509 46.921C75.8849 46.921 76.1102 46.882 76.3269 46.804C76.5522 46.726 76.7689 46.609 76.9769 46.453C77.1849 46.297 77.3799 46.1063 77.5619 45.881L78.3029 46.791C78.0256 47.181 77.6269 47.5017 77.1069 47.753C76.5956 48.0043 76.0626 48.13 75.5079 48.13ZM80.7775 45.868L80.7125 44.412L83.9755 41.175H85.7825L80.7775 45.868ZM79.5555 48V38.38H80.8945V48H79.5555ZM84.1575 48L81.5835 44.997L82.5325 44.126L85.8735 48H84.1575ZM93.635 48.13C92.9676 48.13 92.3696 47.9783 91.841 47.675C91.321 47.363 90.9093 46.9427 90.606 46.414C90.3026 45.8767 90.151 45.2657 90.151 44.581C90.151 43.8963 90.3026 43.2897 90.606 42.761C90.9093 42.2237 91.321 41.8033 91.841 41.5C92.3696 41.188 92.9676 41.032 93.635 41.032C94.2936 41.032 94.883 41.188 95.403 41.5C95.9316 41.8033 96.3476 42.2237 96.651 42.761C96.9543 43.2897 97.106 43.8963 97.106 44.581C97.106 45.2657 96.9543 45.8767 96.651 46.414C96.3476 46.9427 95.9316 47.363 95.403 47.675C94.883 47.9783 94.2936 48.13 93.635 48.13ZM93.635 46.908C94.0423 46.908 94.4063 46.8083 94.727 46.609C95.0476 46.401 95.299 46.1237 95.481 45.777C95.663 45.4217 95.7496 45.023 95.741 44.581C95.7496 44.1303 95.663 43.7317 95.481 43.385C95.299 43.0297 95.0476 42.7523 94.727 42.553C94.4063 42.3537 94.0423 42.254 93.635 42.254C93.2276 42.254 92.8593 42.358 92.53 42.566C92.2093 42.7653 91.958 43.0427 91.776 43.398C91.594 43.7447 91.5073 44.139 91.516 44.581C91.5073 45.023 91.594 45.4217 91.776 45.777C91.958 46.1237 92.2093 46.401 92.53 46.609C92.8593 46.8083 93.2276 46.908 93.635 46.908ZM98.5546 48V41.175H99.8936V42.579L99.6596 42.735C99.7463 42.4317 99.9153 42.1543 100.167 41.903C100.418 41.643 100.717 41.435 101.064 41.279C101.41 41.1143 101.766 41.032 102.13 41.032C102.65 41.032 103.083 41.136 103.43 41.344C103.776 41.5433 104.036 41.851 104.21 42.267C104.383 42.683 104.47 43.2073 104.47 43.84V48H103.131V43.931C103.131 43.541 103.079 43.2203 102.975 42.969C102.871 42.709 102.71 42.5227 102.494 42.41C102.277 42.2887 102.008 42.2367 101.688 42.254C101.428 42.254 101.189 42.2973 100.973 42.384C100.756 42.462 100.565 42.5747 100.401 42.722C100.245 42.8693 100.119 43.0427 100.024 43.242C99.9369 43.4327 99.8936 43.6407 99.8936 43.866V48H99.2306C99.1179 48 99.0053 48 98.8926 48C98.7799 48 98.6673 48 98.5546 48Z" fill="#9AA5B1"/>
    <g clip-path="url(#clip0_3755_217467)">
        <path fill-rule="evenodd" clip-rule="evenodd" d="M118.696 48.999C118.952 48.999 119.162 48.7943 119.162 48.5454V46.0594C119.322 44.7192 119.91 45.1173 120.602 45.5318C122.276 46.5336 123.388 43.8984 122.035 43.0859C120.974 42.4482 120.514 43.5446 119.736 43.4315C119.436 43.3872 119.227 43.0715 119.161 42.5912V40.7953C119.161 40.5454 118.951 40.3417 118.695 40.3417H116.555C114.788 40.1237 116.356 39.1723 116.356 38.2867C116.357 37.576 115.696 37 114.88 37C114.066 37 113.318 37.576 113.318 38.2867C113.318 39.1219 114.941 40.1237 113.149 40.3417H110.466C110.21 40.3417 110 40.5454 110 40.7953V42.587C110.137 43.3512 110.668 43.5282 111.347 43.0242C111.577 42.8534 111.963 42.6549 112.243 42.6549C112.972 42.6549 113.565 43.2978 113.565 44.0908C113.565 44.8838 112.974 45.7015 112.243 45.7015C111.983 45.7015 111.74 45.6192 111.535 45.4762C111.535 45.5369 110.259 44.3602 110 45.8002V48.5474C110 48.7974 110.21 49.001 110.466 49.001C111.903 49.001 113.338 49.001 114.773 49C114.83 48.7377 114.646 48.4374 114.473 48.1772C113.113 46.1273 118.403 45.9226 117.043 48.2409C116.977 48.3551 116.91 48.4662 116.858 48.5742C116.794 48.7089 116.75 48.8735 116.76 49L118.696 48.999Z" fill="#9AA5B1"/>
    </g>
    <path d="M130.201 48.13C129.637 48.13 129.122 47.974 128.654 47.662C128.194 47.35 127.826 46.9253 127.549 46.388C127.271 45.8507 127.133 45.244 127.133 44.568C127.133 43.8833 127.271 43.2767 127.549 42.748C127.835 42.2107 128.216 41.7903 128.693 41.487C129.178 41.1837 129.72 41.032 130.318 41.032C130.673 41.032 130.998 41.084 131.293 41.188C131.587 41.292 131.843 41.4393 132.06 41.63C132.285 41.812 132.467 42.0243 132.606 42.267C132.753 42.5097 132.844 42.7697 132.879 43.047L132.58 42.943V41.175H133.932V48H132.58V46.375L132.892 46.284C132.84 46.518 132.731 46.7477 132.567 46.973C132.411 47.1897 132.207 47.3847 131.956 47.558C131.713 47.7313 131.44 47.87 131.137 47.974C130.842 48.078 130.53 48.13 130.201 48.13ZM130.552 46.895C130.959 46.895 131.319 46.7953 131.631 46.596C131.943 46.3967 132.185 46.1237 132.359 45.777C132.541 45.4217 132.632 45.0187 132.632 44.568C132.632 44.126 132.541 43.7317 132.359 43.385C132.185 43.0383 131.943 42.7653 131.631 42.566C131.319 42.3667 130.959 42.267 130.552 42.267C130.153 42.267 129.798 42.3667 129.486 42.566C129.182 42.7653 128.94 43.0383 128.758 43.385C128.584 43.7317 128.498 44.126 128.498 44.568C128.498 45.0187 128.584 45.4217 128.758 45.777C128.94 46.1237 129.182 46.3967 129.486 46.596C129.798 46.7953 130.153 46.895 130.552 46.895ZM135.791 48V41.175H137.13V42.579L136.896 42.735C136.983 42.4317 137.152 42.1543 137.403 41.903C137.654 41.643 137.953 41.435 138.3 41.279C138.647 41.1143 139.002 41.032 139.366 41.032C139.886 41.032 140.319 41.136 140.666 41.344C141.013 41.5433 141.273 41.851 141.446 42.267C141.619 42.683 141.706 43.2073 141.706 43.84V48H140.367V43.931C140.367 43.541 140.315 43.2203 140.211 42.969C140.107 42.709 139.947 42.5227 139.73 42.41C139.513 42.2887 139.245 42.2367 138.924 42.254C138.664 42.254 138.426 42.2973 138.209 42.384C137.992 42.462 137.802 42.5747 137.637 42.722C137.481 42.8693 137.355 43.0427 137.26 43.242C137.173 43.4327 137.13 43.6407 137.13 43.866V48H136.467C136.354 48 136.242 48 136.129 48C136.016 48 135.904 48 135.791 48ZM146.359 48.13C145.735 48.13 145.176 47.9783 144.682 47.675C144.197 47.363 143.811 46.9427 143.525 46.414C143.239 45.8767 143.096 45.2657 143.096 44.581C143.096 43.8963 143.235 43.2897 143.512 42.761C143.798 42.2237 144.184 41.8033 144.669 41.5C145.154 41.188 145.705 41.032 146.32 41.032C146.658 41.032 146.983 41.0883 147.295 41.201C147.616 41.305 147.902 41.4523 148.153 41.643C148.404 41.825 148.599 42.0287 148.738 42.254C148.885 42.4707 148.959 42.6917 148.959 42.917L148.569 42.943V38.38H149.908V48H148.569V46.375H148.829C148.829 46.583 148.76 46.791 148.621 46.999C148.482 47.1983 148.296 47.3847 148.062 47.558C147.837 47.7313 147.572 47.87 147.269 47.974C146.974 48.078 146.671 48.13 146.359 48.13ZM146.541 46.973C146.948 46.973 147.308 46.869 147.62 46.661C147.932 46.453 148.175 46.1713 148.348 45.816C148.53 45.452 148.621 45.0403 148.621 44.581C148.621 44.1217 148.53 43.7143 148.348 43.359C148.175 42.995 147.932 42.709 147.62 42.501C147.308 42.293 146.948 42.189 146.541 42.189C146.134 42.189 145.774 42.293 145.462 42.501C145.15 42.709 144.903 42.995 144.721 43.359C144.548 43.7143 144.461 44.1217 144.461 44.581C144.461 45.0403 144.548 45.452 144.721 45.816C144.903 46.1713 145.15 46.453 145.462 46.661C145.774 46.869 146.134 46.973 146.541 46.973ZM156.219 48V39.433H157.558V48H156.219ZM154.802 42.475V41.175H159.144V42.475H154.802ZM160.353 48V38.38H161.692V42.579L161.458 42.735C161.544 42.4317 161.713 42.1543 161.965 41.903C162.216 41.643 162.515 41.435 162.862 41.279C163.208 41.1143 163.564 41.032 163.928 41.032C164.448 41.032 164.881 41.136 165.228 41.344C165.574 41.5433 165.834 41.851 166.008 42.267C166.181 42.683 166.268 43.2073 166.268 43.84V48H164.929V43.931C164.929 43.541 164.877 43.2203 164.773 42.969C164.669 42.709 164.508 42.5227 164.292 42.41C164.075 42.2887 163.806 42.2367 163.486 42.254C163.226 42.254 162.987 42.2973 162.771 42.384C162.554 42.462 162.363 42.5747 162.199 42.722C162.043 42.8693 161.917 43.0427 161.822 43.242C161.735 43.4327 161.692 43.6407 161.692 43.866V48H161.029C160.916 48 160.803 48 160.691 48C160.578 48 160.465 48 160.353 48ZM171.259 48.13C170.557 48.13 169.933 47.9827 169.387 47.688C168.849 47.3847 168.425 46.973 168.113 46.453C167.809 45.933 167.658 45.335 167.658 44.659C167.658 44.1217 167.744 43.632 167.918 43.19C168.091 42.748 168.329 42.3667 168.633 42.046C168.945 41.7167 169.313 41.4653 169.738 41.292C170.171 41.11 170.639 41.019 171.142 41.019C171.584 41.019 171.995 41.1057 172.377 41.279C172.758 41.4437 173.087 41.6733 173.365 41.968C173.651 42.2627 173.867 42.6137 174.015 43.021C174.171 43.4197 174.244 43.8573 174.236 44.334L174.223 44.906H168.646L168.347 43.84H173.066L172.871 44.061V43.749C172.845 43.463 172.749 43.2073 172.585 42.982C172.42 42.7567 172.212 42.579 171.961 42.449C171.709 42.319 171.436 42.254 171.142 42.254C170.674 42.254 170.279 42.345 169.959 42.527C169.638 42.7003 169.395 42.9603 169.231 43.307C169.066 43.645 168.984 44.0653 168.984 44.568C168.984 45.0447 169.083 45.4607 169.283 45.816C169.482 46.1627 169.764 46.4313 170.128 46.622C170.492 46.8127 170.912 46.908 171.389 46.908C171.727 46.908 172.039 46.8517 172.325 46.739C172.619 46.6263 172.936 46.4227 173.274 46.128L173.95 47.077C173.742 47.285 173.486 47.467 173.183 47.623C172.888 47.779 172.572 47.9047 172.234 48C171.904 48.0867 171.579 48.13 171.259 48.13ZM175.681 48V41.175H177.02V42.579L176.786 42.735C176.872 42.4317 177.041 42.1543 177.293 41.903C177.544 41.643 177.843 41.435 178.19 41.279C178.536 41.1143 178.892 41.032 179.256 41.032C179.776 41.032 180.209 41.136 180.556 41.344C180.902 41.5433 181.162 41.851 181.336 42.267C181.509 42.683 181.596 43.2073 181.596 43.84V48H180.257V43.931C180.257 43.541 180.205 43.2203 180.101 42.969C179.997 42.709 179.836 42.5227 179.62 42.41C179.403 42.2887 179.134 42.2367 178.814 42.254C178.554 42.254 178.315 42.2973 178.099 42.384C177.882 42.462 177.691 42.5747 177.527 42.722C177.371 42.8693 177.245 43.0427 177.15 43.242C177.063 43.4327 177.02 43.6407 177.02 43.866V48H176.357C176.244 48 176.131 48 176.019 48C175.906 48 175.793 48 175.681 48Z" fill="#9AA5B1"/>
    <path d="M191.855 37.2672C191.376 37.2672 191.049 37.751 191.227 38.1957L192.125 40.442C191.407 40.8316 190.92 41.5919 190.92 42.4665L190.92 43.5056C190.92 43.73 191.102 43.9119 191.326 43.9119L192.967 43.9119L192.967 48.3083C192.967 48.5326 193.149 48.7145 193.373 48.7145C193.597 48.7145 193.779 48.5326 193.779 48.3083L193.779 43.9119H195.42C195.644 43.9119 195.826 43.73 195.826 43.5056L195.826 42.4665C195.826 41.5919 195.339 40.8316 194.621 40.442L195.519 38.1957C195.697 37.751 195.37 37.2672 194.891 37.2672L191.855 37.2672Z" fill="#9AA5B1"/>
    <defs>
        <clipPath id="clip0_3755_217467">
            <rect width="12.6387" height="12" fill="white" transform="translate(110 37)"/>
        </clipPath>
    </defs>
</svg>
