<svg width="32" height="32" viewBox="0 0 32 32" fill="none"
    xmlns="http://www.w3.org/2000/svg">
    <path fill-rule="evenodd" clip-rule="evenodd" d="M29.3337 11.0593V21.9527C29.3337 26.6593 26.3057 29.8327 21.787 29.8327H10.227C5.70699 29.8327 2.66699 26.6593 2.66699 21.9527V11.0593C2.66699 6.33935 5.70699 3.16602 10.227 3.16602H21.787C26.3057 3.16602 29.3337 6.33935 29.3337 11.0593ZM15.0003 13.4727V21.9394C15.0003 22.4993 15.4537 22.9394 16.0003 22.9394C16.5603 22.9394 17.0003 22.4993 17.0003 21.9394V13.4727L20.2937 16.7793C20.4803 16.966 20.747 17.0727 21.0003 17.0727C21.2523 17.0727 21.507 16.966 21.707 16.7793C22.0937 16.3927 22.0937 15.7527 21.707 15.366L16.707 10.3393C16.3337 9.96602 15.667 9.96602 15.2937 10.3393L10.2937 15.366C9.90699 15.7527 9.90699 16.3927 10.2937 16.7793C10.6937 17.166 11.3203 17.166 11.7203 16.7793L15.0003 13.4727Z" fill="#CBD2D9"/>
</svg>
    