<svg width="71" height="28" viewBox="0 0 71 28" fill="none" xmlns="http://www.w3.org/2000/svg">
    <mask id="path-1-inside-1_1009_320782" fill="#0B1821">
        <path fill-rule="evenodd" clip-rule="evenodd"
              d="M67.8273 27.251H64.4769V0.333252H69.9267V25.1516C69.9267 26.3111 68.9868 27.251 67.8273 27.251ZM24.0329 19.2235H38.5781C38.6517 18.7448 38.6886 18.0084 38.6886 17.1614C38.6886 12.3008 34.9694 7.4033 28.7095 7.4033C23.1492 7.4033 18.6936 11.9326 18.6936 17.5665C18.6936 23.3477 22.7809 27.7297 29.0777 27.7297C33.8279 27.7297 36.3319 25.7781 37.8416 23.5687L35.1842 21.8049C34.3752 21.268 33.3139 21.5929 32.5671 22.2133C31.79 22.8588 30.7452 23.2005 29.225 23.2005C26.6474 23.2005 24.6589 21.7643 24.0329 19.2235ZM23.9593 15.6517C24.5116 13.0004 26.3528 11.5275 28.8568 11.5275C31.3608 11.5275 33.0546 13.1109 33.5701 15.6517H23.9593ZM58.1225 7.84518C56.902 7.84518 55.9126 8.8346 55.9126 10.0551V10.2019C54.5133 8.61847 52.488 7.73471 49.9472 7.73471C44.3501 7.73471 40.2996 11.7484 40.2996 17.5665C40.2996 23.3477 44.3501 27.7297 49.9472 27.7297C52.488 27.7297 54.5133 26.7723 55.9126 25.1153V27.251H60.9574V7.84518H58.1225ZM50.7205 22.9059C47.8115 22.9059 45.7126 20.6597 45.7126 17.5665C45.7126 14.4734 47.8115 12.1903 50.7205 12.1903C53.7032 12.1903 55.7285 14.3997 55.7285 17.5665C55.7285 20.7333 53.7032 22.9059 50.7205 22.9059ZM14.5783 14.306L12.9611 15.9423H6.90963L10.5715 12.2373H2.21492C1.65001 12.2373 1.1362 12.0185 0.753643 11.661C0.335594 11.2703 0.0742747 10.714 0.0742621 10.0967L0.0742188 7.95598H16.623V9.32862C16.623 10.1303 16.4871 10.918 16.2278 11.661C16.2048 11.7269 16.1808 11.7925 16.1559 11.8578C15.8086 12.7659 15.2748 13.6014 14.5783 14.306ZM2.11898 20.7895L3.73603 19.1534H0.0742188V15.9425H16.6231V19.1534H9.78751L6.12577 22.8583H14.4824C15.0473 22.8583 15.5611 23.0771 15.9437 23.4346C16.3617 23.8253 16.623 24.3815 16.623 24.9989L16.6231 27.1396H0.0743007V25.7669C0.0743007 24.9653 0.210249 24.1775 0.469458 23.4346C0.492472 23.3686 0.516457 23.303 0.541406 23.2378C0.888689 22.3297 1.42253 21.4942 2.11898 20.7895Z"/>
    </mask>
    <path fill-rule="evenodd" clip-rule="evenodd"
          d="M67.8273 27.251H64.4769V0.333252H69.9267V25.1516C69.9267 26.3111 68.9868 27.251 67.8273 27.251ZM24.0329 19.2235H38.5781C38.6517 18.7448 38.6886 18.0084 38.6886 17.1614C38.6886 12.3008 34.9694 7.4033 28.7095 7.4033C23.1492 7.4033 18.6936 11.9326 18.6936 17.5665C18.6936 23.3477 22.7809 27.7297 29.0777 27.7297C33.8279 27.7297 36.3319 25.7781 37.8416 23.5687L35.1842 21.8049C34.3752 21.268 33.3139 21.5929 32.5671 22.2133C31.79 22.8588 30.7452 23.2005 29.225 23.2005C26.6474 23.2005 24.6589 21.7643 24.0329 19.2235ZM23.9593 15.6517C24.5116 13.0004 26.3528 11.5275 28.8568 11.5275C31.3608 11.5275 33.0546 13.1109 33.5701 15.6517H23.9593ZM58.1225 7.84518C56.902 7.84518 55.9126 8.8346 55.9126 10.0551V10.2019C54.5133 8.61847 52.488 7.73471 49.9472 7.73471C44.3501 7.73471 40.2996 11.7484 40.2996 17.5665C40.2996 23.3477 44.3501 27.7297 49.9472 27.7297C52.488 27.7297 54.5133 26.7723 55.9126 25.1153V27.251H60.9574V7.84518H58.1225ZM50.7205 22.9059C47.8115 22.9059 45.7126 20.6597 45.7126 17.5665C45.7126 14.4734 47.8115 12.1903 50.7205 12.1903C53.7032 12.1903 55.7285 14.3997 55.7285 17.5665C55.7285 20.7333 53.7032 22.9059 50.7205 22.9059ZM14.5783 14.306L12.9611 15.9423H6.90963L10.5715 12.2373H2.21492C1.65001 12.2373 1.1362 12.0185 0.753643 11.661C0.335594 11.2703 0.0742747 10.714 0.0742621 10.0967L0.0742188 7.95598H16.623V9.32862C16.623 10.1303 16.4871 10.918 16.2278 11.661C16.2048 11.7269 16.1808 11.7925 16.1559 11.8578C15.8086 12.7659 15.2748 13.6014 14.5783 14.306ZM2.11898 20.7895L3.73603 19.1534H0.0742188V15.9425H16.6231V19.1534H9.78751L6.12577 22.8583H14.4824C15.0473 22.8583 15.5611 23.0771 15.9437 23.4346C16.3617 23.8253 16.623 24.3815 16.623 24.9989L16.6231 27.1396H0.0743007V25.7669C0.0743007 24.9653 0.210249 24.1775 0.469458 23.4346C0.492472 23.3686 0.516457 23.303 0.541406 23.2378C0.888689 22.3297 1.42253 21.4942 2.11898 20.7895Z"
          fill="#0B1821"/>
    <path d="M64.4769 27.251H64.4214V27.3064H64.4769V27.251ZM64.4769 0.333252V0.277808H64.4214V0.333252H64.4769ZM69.9267 0.333252H69.9821V0.277808H69.9267V0.333252ZM38.5781 19.2235V19.279H38.6257L38.6329 19.232L38.5781 19.2235ZM24.0329 19.2235V19.1681H23.9622L23.9791 19.2368L24.0329 19.2235ZM37.8416 23.5687L37.8874 23.6L37.9191 23.5536L37.8723 23.5225L37.8416 23.5687ZM35.1841 21.8049L35.1535 21.8511L35.1841 21.8049ZM32.5671 22.2133L32.6025 22.2559L32.5671 22.2133ZM23.9593 15.6517L23.905 15.6404L23.8911 15.7071H23.9593V15.6517ZM33.5701 15.6517V15.7071H33.638L33.6245 15.6407L33.5701 15.6517ZM55.9126 10.2019L55.8711 10.2386L55.9681 10.3483V10.2019H55.9126ZM55.9126 25.1153H55.9681V24.9637L55.8702 25.0795L55.9126 25.1153ZM55.9126 27.251H55.8572V27.3064H55.9126V27.251ZM60.9574 27.251V27.3064H61.0128V27.251H60.9574ZM60.9574 7.84518H61.0128V7.78974H60.9574V7.84518ZM12.9611 15.9423V15.9977H12.9843L13.0005 15.9812L12.9611 15.9423ZM14.5783 14.306L14.5389 14.267L14.5783 14.306ZM6.90963 15.9423L6.87019 15.9033L6.77687 15.9977H6.90963V15.9423ZM10.5715 12.2373L10.611 12.2763L10.7043 12.1818H10.5715V12.2373ZM0.753643 11.661L0.791499 11.6205L0.791499 11.6205L0.753643 11.661ZM0.0742621 10.0967L0.0188182 10.0967L0.0742621 10.0967ZM0.0742188 7.95598V7.90053H0.0187738L0.0187749 7.95598L0.0742188 7.95598ZM16.623 7.95598H16.6784V7.90053H16.623V7.95598ZM16.2278 11.661L16.1755 11.6427L16.2278 11.661ZM16.1559 11.8578L16.2077 11.8776L16.1559 11.8578ZM3.73604 19.1534L3.77547 19.1924L3.86879 19.098H3.73604V19.1534ZM2.11898 20.7895L2.15841 20.8285L2.11898 20.7895ZM0.0742188 19.1534H0.0187749V19.2089H0.0742188V19.1534ZM0.0742188 15.9425V15.887H0.0187749V15.9425H0.0742188ZM16.6231 15.9425H16.6786V15.887H16.6231V15.9425ZM16.6231 19.1534V19.2089H16.6786V19.1534H16.6231ZM9.78751 19.1534V19.098H9.76435L9.74807 19.1145L9.78751 19.1534ZM6.12577 22.8583L6.08634 22.8193L5.99302 22.9137H6.12577V22.8583ZM15.9437 23.4346L15.9058 23.4751L15.9437 23.4346ZM16.623 24.9989H16.5676H16.623ZM16.6231 27.1396V27.195H16.6785V27.1396L16.6231 27.1396ZM0.0743007 27.1396H0.0188568V27.195H0.0743007V27.1396ZM0.469458 23.4346L0.521807 23.4528H0.521807L0.469458 23.4346ZM0.541406 23.2378L0.48962 23.218H0.48962L0.541406 23.2378ZM64.4769 27.3064H67.8273V27.1956H64.4769V27.3064ZM64.4214 0.333252V27.251H64.5323V0.333252H64.4214ZM69.9267 0.277808H64.4769V0.388696H69.9267V0.277808ZM69.9821 25.1516V0.333252H69.8713V25.1516H69.9821ZM67.8273 27.3064C69.0174 27.3064 69.9821 26.3417 69.9821 25.1516H69.8713C69.8713 26.2804 68.9561 27.1956 67.8273 27.1956V27.3064ZM38.5781 19.1681H24.0329V19.279H38.5781V19.1681ZM38.6331 17.1614C38.6331 18.0076 38.5963 18.7407 38.5233 19.2151L38.6329 19.232C38.7072 18.749 38.744 18.0092 38.744 17.1614H38.6331ZM28.7095 7.45875C34.9353 7.45875 38.6331 12.3278 38.6331 17.1614H38.744C38.744 12.2738 35.0035 7.34786 28.7095 7.34786V7.45875ZM18.749 17.5665C18.749 11.9624 23.1806 7.45875 28.7095 7.45875V7.34786C23.1178 7.34786 18.6381 11.9027 18.6381 17.5665H18.749ZM29.0777 27.6743C25.9426 27.6743 23.3612 26.5837 21.5637 24.777C19.766 22.9701 18.749 20.4438 18.749 17.5665H18.6381C18.6381 20.4704 19.6649 23.0257 21.4851 24.8552C23.3054 26.6848 25.916 27.7851 29.0777 27.7851V27.6743ZM37.7958 23.5374C37.0449 24.6364 36.0476 25.6699 34.6484 26.429C33.2492 27.188 31.445 27.6743 29.0777 27.6743V27.7851C31.4606 27.7851 33.2835 27.2956 34.7013 26.5264C36.119 25.7573 37.1286 24.7104 37.8874 23.6L37.7958 23.5374ZM35.1535 21.8511L37.811 23.6149L37.8723 23.5225L35.2148 21.7587L35.1535 21.8511ZM32.6025 22.2559C33.3416 21.642 34.3749 21.3343 35.1535 21.8511L35.2148 21.7587C34.3756 21.2017 33.2862 21.5438 32.5317 22.1706L32.6025 22.2559ZM29.225 23.2559C30.7537 23.2559 31.8125 22.9122 32.6025 22.2559L32.5317 22.1706C31.7675 22.8055 30.7366 23.145 29.225 23.145V23.2559ZM23.9791 19.2368C24.6116 21.8041 26.6236 23.2559 29.225 23.2559V23.145C26.6711 23.145 24.7062 21.7246 24.0868 19.2103L23.9791 19.2368ZM28.8568 11.4721C27.5936 11.4721 26.4943 11.8437 25.6407 12.5527C24.7872 13.2616 24.1833 14.3046 23.905 15.6404L24.0136 15.663C24.2876 14.3476 24.8804 13.3284 25.7116 12.638C26.5427 11.9477 27.616 11.5829 28.8568 11.5829V11.4721ZM33.6245 15.6407C33.3648 14.361 32.8076 13.3183 31.996 12.5954C31.184 11.8721 30.1211 11.4721 28.8568 11.4721V11.5829C30.0965 11.5829 31.1324 11.9746 31.9222 12.6782C32.7125 13.3822 33.2599 14.4016 33.5158 15.6627L33.6245 15.6407ZM23.9593 15.7071H33.5701V15.5963H23.9593V15.7071ZM55.9681 10.0551C55.9681 8.86522 56.9326 7.90063 58.1225 7.90063V7.78974C56.8714 7.78974 55.8572 8.80398 55.8572 10.0551H55.9681ZM55.9681 10.2019V10.0551H55.8572V10.2019H55.9681ZM49.9472 7.79016C52.4744 7.79016 54.4837 8.66865 55.8711 10.2386L55.9542 10.1652C54.543 8.56828 52.5017 7.67927 49.9472 7.67927V7.79016ZM40.355 17.5665C40.355 14.6707 41.3628 12.2272 43.0639 10.5078C44.765 8.78848 47.1623 7.79016 49.9472 7.79016V7.67927C47.1351 7.67927 44.7086 8.68781 42.9851 10.4298C41.2616 12.1719 40.2441 14.6443 40.2441 17.5665H40.355ZM49.9472 27.6743C44.3838 27.6743 40.355 23.3203 40.355 17.5665H40.2441C40.2441 23.3752 44.3164 27.7851 49.9472 27.7851V27.6743ZM55.8702 25.0795C54.4822 26.7232 52.4729 27.6743 49.9472 27.6743V27.7851C52.5032 27.7851 54.5444 26.8214 55.955 25.151L55.8702 25.0795ZM55.9681 27.251V25.1153H55.8572V27.251H55.9681ZM60.9574 27.1956H55.9126V27.3064H60.9574V27.1956ZM60.9019 7.84518V27.251H61.0128V7.84518H60.9019ZM58.1225 7.90063H60.9574V7.78974H58.1225V7.90063ZM45.6571 17.5665C45.6571 20.6868 47.7775 22.9613 50.7205 22.9613V22.8504C47.8455 22.8504 45.768 20.6325 45.768 17.5665H45.6571ZM50.7205 12.1349C47.7771 12.1349 45.6571 14.4467 45.6571 17.5665H45.768C45.768 14.5 47.846 12.2458 50.7205 12.2458V12.1349ZM55.7839 17.5665C55.7839 15.9713 55.2737 14.6131 54.3837 13.6532C53.4933 12.6929 52.2262 12.1349 50.7205 12.1349V12.2458C52.1975 12.2458 53.4344 12.7924 54.3024 13.7286C55.1706 14.665 55.673 15.9949 55.673 17.5665H55.7839ZM50.7205 22.9613C52.226 22.9613 53.493 22.4127 54.3835 21.4616C55.2737 20.5109 55.7839 19.1618 55.7839 17.5665H55.673C55.673 19.138 55.1707 20.4586 54.3025 21.3858C53.4347 22.3127 52.1978 22.8504 50.7205 22.8504V22.9613ZM13.0005 15.9812L14.6178 14.345L14.5389 14.267L12.9217 15.9033L13.0005 15.9812ZM6.90963 15.9977H12.9611V15.8868H6.90963V15.9977ZM10.5321 12.1983L6.87019 15.9033L6.94906 15.9812L10.611 12.2763L10.5321 12.1983ZM2.21492 12.2927H10.5715V12.1818H2.21492V12.2927ZM0.715787 11.7015C1.10821 12.0682 1.6354 12.2927 2.21492 12.2927V12.1818C1.66461 12.1818 1.16419 11.9687 0.791499 11.6205L0.715787 11.7015ZM0.0188182 10.0967C0.0188311 10.73 0.286988 11.3007 0.715787 11.7015L0.791499 11.6205C0.3842 11.2398 0.129718 10.698 0.129706 10.0967L0.0188182 10.0967ZM0.0187749 7.95598L0.0188182 10.0967L0.129706 10.0967L0.129663 7.95598L0.0187749 7.95598ZM16.623 7.90053H0.0742188V8.01142H16.623V7.90053ZM16.6784 9.32862V7.95598H16.5676V9.32862H16.6784ZM16.2802 11.6792C16.5414 10.9304 16.6784 10.1365 16.6784 9.32862H16.5676C16.5676 10.124 16.4327 10.9056 16.1755 11.6427L16.2802 11.6792ZM16.2077 11.8776C16.2328 11.8118 16.257 11.7457 16.2802 11.6792L16.1755 11.6427C16.1527 11.7081 16.1289 11.7732 16.1041 11.838L16.2077 11.8776ZM14.6178 14.345C15.3197 13.6348 15.8577 12.7928 16.2077 11.8776L16.1041 11.838C15.7595 12.739 15.2299 13.5679 14.5389 14.267L14.6178 14.345ZM3.6966 19.1145L2.07954 20.7505L2.15841 20.8285L3.77547 19.1924L3.6966 19.1145ZM0.0742188 19.2089H3.73604V19.098H0.0742188V19.2089ZM0.0187749 15.9425V19.1534H0.129663V15.9425H0.0187749ZM16.6231 15.887H0.0742188V15.9979H16.6231V15.887ZM16.6786 19.1534V15.9425H16.5677V19.1534H16.6786ZM9.78751 19.2089H16.6231V19.098H9.78751V19.2089ZM6.1652 22.8972L9.82694 19.1924L9.74807 19.1145L6.08634 22.8193L6.1652 22.8972ZM14.4824 22.8028H6.12577V22.9137H14.4824V22.8028ZM15.9815 23.3941C15.5891 23.0273 15.0619 22.8028 14.4824 22.8028V22.9137C15.0327 22.9137 15.5331 23.1268 15.9058 23.4751L15.9815 23.3941ZM16.6785 24.9989C16.6785 24.3656 16.4103 23.7948 15.9815 23.3941L15.9058 23.4751C16.3131 23.8557 16.5676 24.3975 16.5676 24.9989L16.6785 24.9989ZM16.6785 27.1396L16.6785 24.9989L16.5676 24.9989L16.5676 27.1396L16.6785 27.1396ZM0.0743007 27.195H16.6231V27.0841H0.0743007V27.195ZM0.0188568 25.7669V27.1396H0.129745V25.7669H0.0188568ZM0.417108 23.4163C0.15587 24.1651 0.0188568 24.959 0.0188568 25.7669H0.129745C0.129745 24.9716 0.264628 24.19 0.521807 23.4528L0.417108 23.4163ZM0.48962 23.218C0.464475 23.2837 0.440302 23.3498 0.417108 23.4163L0.521807 23.4528C0.544641 23.3874 0.568439 23.3223 0.593192 23.2576L0.48962 23.218ZM2.07954 20.7505C1.37764 21.4607 0.839621 22.3028 0.48962 23.218L0.593192 23.2576C0.937757 22.3566 1.46741 21.5276 2.15841 20.8285L2.07954 20.7505Z"
          fill="#0B1821" mask="url(#path-1-inside-1_1009_320782)"/>
</svg>
