<svg xmlns="http://www.w3.org/2000/svg" xmlns:xlink="http://www.w3.org/1999/xlink" fill="none" viewBox="0 0 390 782">
  <defs>
    <path id="reuse-0" d="M195 466.5c89.194 0 161.5-72.306 161.5-161.5S284.194 143.5 195 143.5 33.5 215.806 33.5 305 105.806 466.5 195 466.5Z"/>
    <path id="reuse-1" d="M195 406.5c56.057 0 101.5-45.443 101.5-101.5S251.057 203.5 195 203.5 93.5 248.943 93.5 305 138.943 406.5 195 406.5Z"/>
    <path id="reuse-2" d="M195 434.5c71.521 0 129.5-57.979 129.5-129.5S266.521 175.5 195 175.5 65.5 233.479 65.5 305 123.479 434.5 195 434.5Z"/>
    <path id="reuse-3" d="M195 502.5c109.076 0 197.5-88.424 197.5-197.5S304.076 107.5 195 107.5-2.5 195.924-2.5 305 85.924 502.5 195 502.5Z"/>
    <path id="reuse-4" d="M195 586.5c155.468 0 281.5-126.032 281.5-281.5 0-155.468-126.032-281.5-281.5-281.5C39.532 23.5-86.5 149.532-86.5 305c0 155.468 126.032 281.5 281.5 281.5Z"/>
    <path id="reuse-5" d="M195 542.5c131.168 0 237.5-106.332 237.5-237.5S326.168 67.5 195 67.5-42.5 173.832-42.5 305 63.832 542.5 195 542.5Z"/>
    <path id="reuse-6" d="M195 634.5c181.978 0 329.5-147.522 329.5-329.5S376.978-24.5 195-24.5-134.5 123.022-134.5 305 13.022 634.5 195 634.5Z"/>
  </defs>
  <g clip-path="url(#a)">
    <g stroke="#01C9C9" opacity=".5">
      <use xlink:href="#reuse-0"/>
      <use xlink:href="#reuse-1"/>
      <use xlink:href="#reuse-2"/>
      <use xlink:href="#reuse-3"/>
      <use xlink:href="#reuse-4"/>
      <use xlink:href="#reuse-5"/>
      <use xlink:href="#reuse-6"/>
      <use xlink:href="#reuse-0"/>
      <use xlink:href="#reuse-1"/>
      <use xlink:href="#reuse-2"/>
      <use xlink:href="#reuse-3"/>
      <use xlink:href="#reuse-4"/>
      <use xlink:href="#reuse-5"/>
      <use xlink:href="#reuse-6"/>
      <path d="M195 686.5c210.697 0 381.5-170.803 381.5-381.5S405.697-76.5 195-76.5-186.5 94.303-186.5 305-15.697 686.5 195 686.5Z"/>
      <path d="M195 742.5c241.625 0 437.5-195.875 437.5-437.5S436.625-132.5 195-132.5-242.5 63.375-242.5 305-46.625 742.5 195 742.5Z"/>
    </g>
    <path fill="#52606D" d="M82.545 436.536v-12.1h-4.576v-3.3h13v3.3h-4.685v12.1h-3.74Zm10.64 0v-16.28h3.454v6.974l-.703.264a3.526 3.526 0 0 1 .857-1.43 4.855 4.855 0 0 1 1.518-1.056 4.445 4.445 0 0 1 1.848-.396c.88 0 1.621.183 2.222.55.602.352 1.056.887 1.364 1.606.308.704.462 1.569.462 2.596v7.172h-3.542v-6.886c0-.469-.066-.858-.198-1.166a1.337 1.337 0 0 0-.615-.682c-.264-.161-.595-.235-.99-.22a2.33 2.33 0 0 0-.858.154 1.727 1.727 0 0 0-.683.418c-.19.176-.344.381-.462.616a1.906 1.906 0 0 0-.153.77v6.996h-3.521Zm19.474.22c-1.291 0-2.413-.257-3.366-.77-.953-.528-1.694-1.239-2.222-2.134-.528-.909-.792-1.943-.792-3.102 0-.895.147-1.716.44-2.464a5.733 5.733 0 0 1 1.232-1.936 5.303 5.303 0 0 1 1.87-1.276 6.142 6.142 0 0 1 2.398-.462c.821 0 1.569.147 2.244.44a5.25 5.25 0 0 1 1.782 1.232c.499.528.88 1.151 1.144 1.87.264.719.381 1.503.352 2.354l-.022.946h-9.306l-.506-1.98h6.952l-.374.418v-.44a1.846 1.846 0 0 0-.352-.968 1.927 1.927 0 0 0-.77-.682 2.423 2.423 0 0 0-1.1-.242c-.572 0-1.063.117-1.474.352a2.12 2.12 0 0 0-.902.99c-.205.425-.308.953-.308 1.584 0 .645.132 1.21.396 1.694.279.469.675.836 1.188 1.1.528.264 1.151.396 1.87.396.499 0 .939-.073 1.32-.22.396-.147.821-.396 1.276-.748l1.65 2.332a6.6 6.6 0 0 1-1.452.968 6.998 6.998 0 0 1-1.584.55 6.51 6.51 0 0 1-1.584.198Zm16.809-.22-3.85-11.682h3.718l2.156 7.59-.462-.088 2.42-5.896h2.068l2.552 5.918-.506.044 2.156-7.568h3.718l-3.982 11.682h-2.596l-2.53-6.27.264.044-2.53 6.226h-2.596Zm20.916.22c-1.217 0-2.302-.264-3.256-.792a6.09 6.09 0 0 1-2.244-2.156c-.542-.909-.814-1.951-.814-3.124s.272-2.215.814-3.124a6.098 6.098 0 0 1 2.244-2.156c.954-.528 2.039-.792 3.256-.792 1.218 0 2.296.264 3.234.792a5.882 5.882 0 0 1 2.244 2.156c.543.909.814 1.951.814 3.124s-.271 2.215-.814 3.124a5.882 5.882 0 0 1-2.244 2.156c-.938.528-2.016.792-3.234.792Zm0-3.036c.528 0 .998-.132 1.408-.396.411-.264.734-.623.968-1.078.235-.455.345-.975.33-1.562.015-.587-.095-1.107-.33-1.562a2.722 2.722 0 0 0-.968-1.1 2.542 2.542 0 0 0-1.408-.396c-.528 0-1.004.132-1.43.396-.41.264-.733.631-.968 1.1-.234.455-.344.975-.33 1.562-.014.587.096 1.107.33 1.562.235.455.558.814.968 1.078.426.264.902.396 1.43.396Zm8.537 2.816v-11.682h3.344l.154 3.806-.66-.726a4.746 4.746 0 0 1 .858-1.694c.394-.486.88-.889 1.43-1.188a3.602 3.602 0 0 1 1.738-.44c.264 0 .506.022.726.066.235.044.447.095.638.154l-.968 3.894c-.161-.103-.381-.183-.66-.242a3.152 3.152 0 0 0-.836-.11c-.323 0-.623.059-.902.176-.268.096-.51.254-.704.462a2.43 2.43 0 0 0-.462.726 2.72 2.72 0 0 0-.154.946v5.852h-3.542Zm9.976 0v-16.28h3.52v16.28h-3.52Zm10.81.242c-1.012 0-1.914-.257-2.706-.77-.777-.528-1.393-1.247-1.848-2.156-.455-.924-.682-1.973-.682-3.146 0-1.173.227-2.215.682-3.124.455-.924 1.078-1.65 1.87-2.178s1.701-.792 2.728-.792c.528 0 1.034.081 1.518.242.484.161.924.381 1.32.66s.719.601.968.968c.249.352.396.719.44 1.1l-.836.198v-7.524h3.542v16.28h-3.278l-.198-2.662.704.11a2.21 2.21 0 0 1-.44 1.056 3.65 3.65 0 0 1-.924.902 4.947 4.947 0 0 1-1.32.594 4.853 4.853 0 0 1-1.54.242Zm.902-2.926c.543 0 1.012-.132 1.408-.396.401-.271.715-.653.902-1.1.22-.469.33-1.019.33-1.65 0-.645-.11-1.203-.33-1.672a2.486 2.486 0 0 0-.902-1.1c-.396-.264-.865-.396-1.408-.396-.543 0-1.012.132-1.408.396a2.685 2.685 0 0 0-.902 1.1c-.22.469-.33 1.027-.33 1.672 0 .631.11 1.181.33 1.65.22.469.521.836.902 1.1.396.264.865.396 1.408.396Zm9.035-6.754-1.012-1.232c.616-.264 1.108-.587 1.474-.968.382-.396.572-.726.572-.99a.727.727 0 0 0-.176-.462 1.428 1.428 0 0 0-.484-.44c-.337-.249-.572-.491-.704-.726a1.527 1.527 0 0 1-.198-.77c0-.455.162-.814.484-1.078.338-.264.77-.396 1.298-.396.44 0 .836.117 1.188.352.367.22.653.543.858.968.206.411.308.887.308 1.43 0 .469-.088.931-.264 1.386-.176.44-.432.858-.77 1.254-.332.39-.717.73-1.144 1.012-.44.293-.916.513-1.43.66Zm9.939 9.658c-1.144 0-2.156-.183-3.036-.55-.865-.367-1.554-.858-2.068-1.474l2.134-1.848a4.39 4.39 0 0 0 1.54 1.012c.521.196 1.071.3 1.628.308.206 0 .389-.022.55-.066.162-.044.294-.103.396-.176a.937.937 0 0 0 .264-.286.875.875 0 0 0 .088-.396c0-.293-.132-.521-.396-.682a4.368 4.368 0 0 0-.66-.264c-.308-.103-.704-.22-1.188-.352a10.81 10.81 0 0 1-1.804-.616 4.7 4.7 0 0 1-1.232-.858 3.489 3.489 0 0 1-.682-1.012 3.247 3.247 0 0 1-.242-1.276c0-.543.125-1.034.374-1.474.264-.44.609-.821 1.034-1.144.44-.323.939-.565 1.496-.726a5.93 5.93 0 0 1 1.76-.264 7.577 7.577 0 0 1 1.848.22 7.247 7.247 0 0 1 1.628.616c.514.264.968.579 1.364.946l-1.848 2.068a4.633 4.633 0 0 0-.902-.66 4.57 4.57 0 0 0-1.012-.484 3.1 3.1 0 0 0-.968-.176c-.22 0-.418.022-.594.066a.965.965 0 0 0-.418.176.706.706 0 0 0-.264.286.849.849 0 0 0 .022.792c.088.132.206.242.352.33.147.088.382.191.704.308.323.103.763.235 1.32.396.69.191 1.284.403 1.782.638.499.235.895.513 1.188.836.235.249.411.543.528.88.118.323.176.675.176 1.056 0 .748-.212 1.415-.638 2.002-.41.572-.982 1.027-1.716 1.364-.733.323-1.569.484-2.508.484Zm14.613-.22v-12.254c0-.763.162-1.452.484-2.068.338-.616.8-1.1 1.386-1.452.602-.367 1.298-.55 2.09-.55.558 0 1.071.081 1.54.242.47.161.888.389 1.254.682l-1.012 2.574a3.545 3.545 0 0 0-.55-.242 1.539 1.539 0 0 0-.484-.088 1.47 1.47 0 0 0-.66.132.847.847 0 0 0-.396.418 1.71 1.71 0 0 0-.11.66v11.946h-3.542Zm-1.694-8.448v-2.904h7.634v2.904h-7.634Zm9.812 8.448v-11.682h3.52v11.682h-3.52Zm1.76-13.992c-.66 0-1.18-.154-1.562-.462-.366-.323-.55-.777-.55-1.364 0-.528.191-.961.572-1.298.382-.337.895-.506 1.54-.506.66 0 1.174.161 1.54.484.367.308.55.748.55 1.32 0 .543-.19.983-.572 1.32-.366.337-.872.506-1.518.506Zm5.001 13.992v-11.682h3.344l.154 3.806-.66-.726a4.746 4.746 0 0 1 .858-1.694c.394-.485.88-.889 1.43-1.188a3.602 3.602 0 0 1 1.738-.44c.264 0 .506.022.726.066.235.044.448.095.638.154l-.968 3.894c-.161-.103-.381-.183-.66-.242a3.152 3.152 0 0 0-.836-.11 2.323 2.323 0 0 0-.902.176 1.804 1.804 0 0 0-.704.462c-.19.205-.344.447-.462.726a2.72 2.72 0 0 0-.154.946v5.852h-3.542Zm13.893.22c-1.144 0-2.156-.183-3.036-.55-.866-.367-1.555-.858-2.068-1.474l2.134-1.848c.454.455.968.792 1.54 1.012.521.196 1.071.3 1.628.308.185.002.37-.02.55-.066.161-.044.293-.103.396-.176a.987.987 0 0 0 .264-.286.875.875 0 0 0 .088-.396c0-.293-.132-.521-.396-.682a4.368 4.368 0 0 0-.66-.264c-.308-.103-.704-.22-1.188-.352a10.602 10.602 0 0 1-1.804-.616 4.62 4.62 0 0 1-1.232-.858 3.489 3.489 0 0 1-.682-1.012 3.208 3.208 0 0 1-.242-1.276c0-.543.124-1.034.374-1.474.264-.44.608-.821 1.034-1.144.44-.323.938-.565 1.496-.726a5.93 5.93 0 0 1 1.76-.264c.645 0 1.261.073 1.848.22a7.247 7.247 0 0 1 1.628.616c.513.264.968.579 1.364.946l-1.848 2.068a4.674 4.674 0 0 0-.902-.66 4.57 4.57 0 0 0-1.012-.484 3.106 3.106 0 0 0-.968-.176c-.22 0-.418.022-.594.066a.965.965 0 0 0-.418.176.687.687 0 0 0-.264.286.74.74 0 0 0-.088.374.827.827 0 0 0 .11.418c.088.132.205.242.352.33.146.088.381.191.704.308.322.103.762.235 1.32.396.689.191 1.283.403 1.782.638.498.235.894.513 1.188.836.234.249.41.543.528.88.117.323.176.675.176 1.056 0 .748-.213 1.415-.638 2.002-.411.572-.983 1.027-1.716 1.364-.734.323-1.57.484-2.508.484Zm7.865-.22v-14.63h3.52v14.63h-3.52Zm-2.068-8.602v-3.08h7.854v3.08h-7.854Zm-86.418 36.602-6.16-15.4h3.894l2.97 7.854c.176.455.322.851.44 1.188.132.337.242.653.33.946.102.293.19.594.264.902.088.293.183.631.286 1.012h-.682c.117-.499.234-.939.352-1.32.117-.396.249-.799.396-1.21.146-.425.33-.931.55-1.518l2.86-7.854h3.828l-6.204 15.4h-3.124Zm11.117 0v-11.682h3.52v11.682h-3.52Zm1.76-13.992c-.66 0-1.181-.154-1.562-.462-.367-.323-.55-.777-.55-1.364 0-.528.19-.961.572-1.298.381-.337.894-.506 1.54-.506.66 0 1.173.161 1.54.484.366.308.55.748.55 1.32 0 .543-.191.983-.572 1.32-.367.337-.873.506-1.518.506Zm8.948 14.212c-1.144 0-2.156-.183-3.036-.55-.866-.367-1.555-.858-2.068-1.474l2.134-1.848c.454.455.968.792 1.54 1.012.521.196 1.071.3 1.628.308.185.002.37-.02.55-.066.161-.044.293-.103.396-.176a.987.987 0 0 0 .264-.286.875.875 0 0 0 .088-.396c0-.293-.132-.521-.396-.682a4.368 4.368 0 0 0-.66-.264c-.308-.103-.704-.22-1.188-.352a10.602 10.602 0 0 1-1.804-.616 4.62 4.62 0 0 1-1.232-.858 3.489 3.489 0 0 1-.682-1.012 3.208 3.208 0 0 1-.242-1.276c0-.543.124-1.034.374-1.474.264-.44.608-.821 1.034-1.144.44-.323.938-.565 1.496-.726a5.93 5.93 0 0 1 1.76-.264c.645 0 1.261.073 1.848.22a7.247 7.247 0 0 1 1.628.616c.513.264.968.579 1.364.946l-1.848 2.068a4.674 4.674 0 0 0-.902-.66 4.57 4.57 0 0 0-1.012-.484 3.1 3.1 0 0 0-.968-.176c-.22 0-.418.022-.594.066a.965.965 0 0 0-.418.176.687.687 0 0 0-.264.286.74.74 0 0 0-.088.374.827.827 0 0 0 .11.418c.088.132.205.242.352.33.146.088.381.191.704.308.322.103.762.235 1.32.396.689.191 1.283.403 1.782.638.498.235.894.513 1.188.836.234.249.41.543.528.88.117.323.176.675.176 1.056 0 .748-.213 1.415-.638 2.002-.411.572-.983 1.027-1.716 1.364-.734.323-1.57.484-2.508.484Zm11.209-.022c-.983 0-1.863-.257-2.64-.77-.763-.528-1.371-1.247-1.826-2.156-.455-.924-.682-1.965-.682-3.124 0-1.188.227-2.237.682-3.146.455-.909 1.078-1.621 1.87-2.134.792-.528 1.694-.792 2.706-.792.557 0 1.063.081 1.518.242.469.161.88.389 1.232.682.352.279.653.609.902.99.249.367.433.763.55 1.188l-.726-.088v-2.772h3.498v11.682h-3.564v-2.816l.792-.022a3.759 3.759 0 0 1-.572 1.166c-.27.372-.596.699-.968.968-.39.283-.82.506-1.276.66a4.588 4.588 0 0 1-1.496.242Zm.968-2.97c.543 0 1.012-.125 1.408-.374.396-.249.704-.601.924-1.056.22-.469.33-1.019.33-1.65s-.11-1.173-.33-1.628c-.22-.469-.528-.829-.924-1.078-.396-.264-.865-.396-1.408-.396-.528 0-.99.132-1.386.396-.381.249-.682.609-.902 1.078-.22.455-.33.997-.33 1.628 0 .631.11 1.181.33 1.65.22.455.521.807.902 1.056.396.249.858.374 1.386.374Zm13.323-2.42c-1.041 0-1.987-.242-2.838-.726a5.582 5.582 0 0 1-2.002-1.958 5.424 5.424 0 0 1-.726-2.772c0-.763.139-1.474.418-2.134a5.686 5.686 0 0 1 1.188-1.738 5.598 5.598 0 0 1 3.96-1.584c.733 0 1.423.139 2.068.418.66.279 1.239.675 1.738 1.188a5.412 5.412 0 0 1 1.166 1.738c.293.645.44 1.349.44 2.112 0 .763-.139 1.474-.418 2.134a5.413 5.413 0 0 1-2.904 2.904 5.213 5.213 0 0 1-2.09.418Zm0-1.408a3.888 3.888 0 0 0 2.002-.528 4.01 4.01 0 0 0 1.452-1.474c.367-.616.55-1.298.55-2.046 0-.748-.183-1.43-.55-2.046a4.017 4.017 0 0 0-1.452-1.474 3.77 3.77 0 0 0-2.002-.55c-.777 0-1.481.183-2.112.55a4.295 4.295 0 0 0-1.518 1.474 3.919 3.919 0 0 0-.55 2.046c0 .763.183 1.452.55 2.068.381.616.887 1.1 1.518 1.452a4.257 4.257 0 0 0 2.112.528Zm.726-1.474-.814-1.958 1.496-.352 1.21 2.31h-1.892Zm-2.948 0v-5.258h2.662c.557 0 1.012.154 1.364.462.352.308.528.711.528 1.21s-.183.909-.55 1.232c-.367.323-.814.484-1.342.484h-1.21l.308-.264v2.134h-1.76Zm1.76-2.816-.286-.154h.748a.714.714 0 0 0 .44-.132.4.4 0 0 0 .176-.33.444.444 0 0 0-.154-.352c-.088-.088-.227-.132-.418-.132h-.836l.33-.176v1.276Zm18.809 11.132c-1.012 0-1.914-.257-2.706-.77-.778-.528-1.394-1.247-1.848-2.156-.455-.924-.682-1.973-.682-3.146 0-1.173.227-2.215.682-3.124.454-.924 1.078-1.65 1.87-2.178s1.701-.792 2.728-.792c.528 0 1.034.081 1.518.242.484.161.924.381 1.32.66s.718.601.968.968c.249.352.396.719.44 1.1l-.836.198v-7.524h3.542v16.28h-3.278l-.198-2.662.704.11a2.21 2.21 0 0 1-.44 1.056 3.65 3.65 0 0 1-.924.902 5.01 5.01 0 0 1-1.32.594 4.853 4.853 0 0 1-1.54.242Zm.902-2.926c.542 0 1.012-.132 1.408-.396.396-.264.696-.631.902-1.1.22-.469.33-1.019.33-1.65 0-.645-.11-1.203-.33-1.672a2.486 2.486 0 0 0-.902-1.1c-.396-.264-.866-.396-1.408-.396-.543 0-1.012.132-1.408.396-.382.264-.682.631-.902 1.1-.22.469-.33 1.027-.33 1.672 0 .631.11 1.181.33 1.65.22.469.52.836.902 1.1.396.264.865.396 1.408.396Zm14.579 2.904c-1.291 0-2.413-.257-3.366-.77-.953-.528-1.694-1.239-2.222-2.134-.528-.909-.792-1.943-.792-3.102 0-.895.147-1.716.44-2.464a5.733 5.733 0 0 1 1.232-1.936 5.303 5.303 0 0 1 1.87-1.276 6.142 6.142 0 0 1 2.398-.462c.821 0 1.569.147 2.244.44a5.25 5.25 0 0 1 1.782 1.232c.499.528.88 1.151 1.144 1.87.264.719.381 1.503.352 2.354l-.022.946h-9.306l-.506-1.98h6.952l-.374.418v-.44a1.846 1.846 0 0 0-.352-.968 1.927 1.927 0 0 0-.77-.682 2.423 2.423 0 0 0-1.1-.242c-.572 0-1.063.117-1.474.352a2.12 2.12 0 0 0-.902.99c-.205.425-.308.953-.308 1.584 0 .645.132 1.21.396 1.694.279.469.675.836 1.188 1.1.528.264 1.151.396 1.87.396.499 0 .939-.073 1.32-.22.396-.147.821-.396 1.276-.748l1.65 2.332a6.6 6.6 0 0 1-1.452.968 6.998 6.998 0 0 1-1.584.55 6.51 6.51 0 0 1-1.584.198Zm14.285.022a5.201 5.201 0 0 1-1.518-.22 5.406 5.406 0 0 1-1.32-.594 4.191 4.191 0 0 1-.968-.858 2.942 2.942 0 0 1-.506-1.034l.77-.264-.198 2.706h-3.278v-16.258h3.542v7.392l-.726-.264c.088-.381.257-.733.506-1.056.25-.337.565-.631.946-.88.382-.264.8-.469 1.254-.616.455-.147.93-.221 1.408-.22 1.012 0 1.907.264 2.684.792.792.513 1.416 1.232 1.87 2.156.455.909.682 1.951.682 3.124 0 1.188-.227 2.244-.682 3.168-.44.909-1.048 1.628-1.826 2.156-.777.513-1.657.77-2.64.77Zm-.924-2.97c.528 0 .99-.132 1.386-.396.396-.264.697-.623.902-1.078.22-.469.33-1.019.33-1.65 0-.616-.11-1.159-.33-1.628a2.35 2.35 0 0 0-.902-1.078c-.396-.249-.858-.374-1.386-.374-.542 0-1.012.125-1.408.374-.396.249-.704.609-.924 1.078-.22.469-.33 1.012-.33 1.628 0 .631.11 1.181.33 1.65.22.455.528.814.924 1.078.396.264.866.396 1.408.396Zm8.528 2.728v-11.682h3.52v11.682h-3.52Zm1.76-13.992c-.66 0-1.181-.154-1.562-.462-.367-.323-.55-.777-.55-1.364 0-.528.19-.961.572-1.298.381-.337.894-.506 1.54-.506.66 0 1.173.161 1.54.484.366.308.55.748.55 1.32 0 .543-.191.983-.572 1.32-.367.337-.873.506-1.518.506Zm5.978 13.992v-14.63h3.52v14.63h-3.52Zm-2.068-8.602v-3.08h7.854v3.08h-7.854Zm21.924 8.822c-1.129 0-2.141-.264-3.036-.792a5.899 5.899 0 0 1-2.134-2.156c-.513-.924-.77-1.965-.77-3.124s.257-2.193.77-3.102a5.838 5.838 0 0 1 2.134-2.178c.895-.528 1.907-.792 3.036-.792 1.041 0 1.995.183 2.86.55.88.367 1.577.88 2.09 1.54l-1.914 2.288a4.501 4.501 0 0 0-.726-.66 3.485 3.485 0 0 0-.924-.484 3.193 3.193 0 0 0-1.056-.176c-.557 0-1.049.132-1.474.396a2.552 2.552 0 0 0-.99 1.056c-.235.455-.352.975-.352 1.562 0 .557.117 1.063.352 1.518.249.455.587.814 1.012 1.078.425.264.909.396 1.452.396.381 0 .733-.044 1.056-.132a3.09 3.09 0 0 0 .88-.44 3.9 3.9 0 0 0 .77-.704l1.892 2.31c-.499.631-1.195 1.129-2.09 1.496-.88.367-1.826.55-2.838.55Zm11.117-.022c-.983 0-1.863-.257-2.64-.77-.763-.528-1.371-1.247-1.826-2.156-.455-.924-.682-1.965-.682-3.124 0-1.188.227-2.237.682-3.146.455-.909 1.078-1.621 1.87-2.134.792-.528 1.694-.792 2.706-.792.557 0 1.063.081 1.518.242.469.161.88.389 1.232.682.352.279.653.609.902.99.249.367.433.763.55 1.188l-.726-.088v-2.772h3.498v11.682h-3.564v-2.816l.792-.022a3.759 3.759 0 0 1-.572 1.166c-.27.372-.596.699-.968.968-.39.283-.82.506-1.276.66a4.588 4.588 0 0 1-1.496.242Zm.968-2.97c.543 0 1.012-.125 1.408-.374.396-.249.704-.601.924-1.056.22-.469.33-1.019.33-1.65s-.11-1.173-.33-1.628c-.22-.469-.528-.829-.924-1.078-.396-.264-.865-.396-1.408-.396-.528 0-.99.132-1.386.396-.381.249-.682.609-.902 1.078-.22.455-.33.997-.33 1.628 0 .631.11 1.181.33 1.65.22.455.521.807.902 1.056.396.249.858.374 1.386.374Zm9.165 2.772v-11.682h3.344l.154 3.806-.66-.726a4.746 4.746 0 0 1 .858-1.694c.394-.486.88-.889 1.43-1.188a3.602 3.602 0 0 1 1.738-.44c.264 0 .506.022.726.066.235.044.447.095.638.154l-.968 3.894c-.161-.103-.381-.183-.66-.242a3.152 3.152 0 0 0-.836-.11c-.323 0-.623.059-.902.176-.268.096-.51.254-.704.462a2.43 2.43 0 0 0-.462.726 2.72 2.72 0 0 0-.154.946v5.852h-3.542Zm13.882.242c-1.012 0-1.914-.257-2.706-.77-.777-.528-1.393-1.247-1.848-2.156-.454-.924-.682-1.973-.682-3.146 0-1.173.228-2.215.682-3.124.455-.924 1.078-1.65 1.87-2.178s1.702-.792 2.728-.792c.528 0 1.034.081 1.518.242.484.161.924.381 1.32.66s.719.601.968.968c.25.352.396.719.44 1.1l-.836.198v-7.524h3.542v16.28h-3.278l-.198-2.662.704.11c-.044.367-.19.719-.44 1.056-.251.354-.564.66-.924.902a4.947 4.947 0 0 1-1.32.594 4.853 4.853 0 0 1-1.54.242Zm.902-2.926c.543 0 1.012-.132 1.408-.396.401-.271.715-.653.902-1.1.22-.469.33-1.019.33-1.65 0-.645-.11-1.203-.33-1.672a2.486 2.486 0 0 0-.902-1.1c-.396-.264-.865-.396-1.408-.396-.542 0-1.012.132-1.408.396a2.685 2.685 0 0 0-.902 1.1c-.22.469-.33 1.027-.33 1.672 0 .631.11 1.181.33 1.65.22.469.521.836.902 1.1.396.264.866.396 1.408.396Zm9.322 7.084-1.012-1.254c.586-.264 1.056-.601 1.408-1.012.352-.396.528-.741.528-1.034a1.083 1.083 0 0 0-.11-.44c-.059-.147-.22-.315-.484-.506-.338-.249-.565-.491-.682-.726a1.877 1.877 0 0 1-.176-.814c0-.455.161-.814.484-1.078.337-.264.77-.396 1.298-.396.425 0 .806.117 1.144.352.352.235.623.557.814.968.205.411.308.887.308 1.43 0 .499-.088.975-.264 1.43-.177.471-.43.909-.748 1.298a4.886 4.886 0 0 1-1.122 1.078c-.422.306-.89.544-1.386.704Zm-247.194 28.44v-16.522h3.344l.132 2.618-.66-.198c.102-.484.352-.924.748-1.32s.894-.711 1.496-.946a5.117 5.117 0 0 1 1.936-.374c.997 0 1.884.264 2.662.792.777.513 1.386 1.225 1.826 2.134.454.895.682 1.936.682 3.124 0 1.173-.228 2.215-.682 3.124-.44.909-1.056 1.628-1.848 2.156-.778.513-1.672.77-2.684.77-.66 0-1.291-.125-1.892-.374a4.444 4.444 0 0 1-1.518-1.012c-.411-.425-.682-.887-.814-1.386l.814-.308v7.722h-3.542Zm6.094-7.612c.528 0 .99-.125 1.386-.374.396-.264.704-.623.924-1.078.22-.455.33-.997.33-1.628 0-.616-.11-1.151-.33-1.606-.22-.469-.528-.829-.924-1.078-.382-.264-.844-.396-1.386-.396-.543 0-1.012.125-1.408.374-.396.249-.704.609-.924 1.078-.22.469-.33 1.012-.33 1.628 0 .631.11 1.173.33 1.628.22.455.528.814.924 1.078.396.249.865.374 1.408.374Zm13.85 2.992c-1.217 0-2.302-.264-3.256-.792a6.09 6.09 0 0 1-2.244-2.156c-.542-.909-.814-1.951-.814-3.124s.272-2.215.814-3.124a6.098 6.098 0 0 1 2.244-2.156c.954-.528 2.039-.792 3.256-.792 1.218 0 2.296.264 3.234.792a5.882 5.882 0 0 1 2.244 2.156c.543.909.814 1.951.814 3.124s-.271 2.215-.814 3.124a5.882 5.882 0 0 1-2.244 2.156c-.938.528-2.016.792-3.234.792Zm0-3.036c.528 0 .998-.132 1.408-.396.411-.264.734-.623.968-1.078.235-.455.345-.975.33-1.562.015-.587-.095-1.107-.33-1.562a2.722 2.722 0 0 0-.968-1.1 2.542 2.542 0 0 0-1.408-.396c-.528 0-1.004.132-1.43.396-.41.264-.733.631-.968 1.1-.234.455-.344.975-.33 1.562-.014.587.096 1.107.33 1.562.235.455.558.814.968 1.078.426.264.902.396 1.43.396Zm10.659 2.816-3.85-11.682h3.718l2.156 7.59-.462-.088 2.42-5.896h2.068l2.552 5.918-.506.044 2.156-7.568h3.718l-3.982 11.682h-2.596l-2.53-6.27.264.044-2.53 6.226h-2.596Zm20.982.22c-1.29 0-2.412-.257-3.366-.77-.953-.528-1.694-1.239-2.222-2.134-.528-.909-.792-1.943-.792-3.102 0-.895.147-1.716.44-2.464a5.743 5.743 0 0 1 1.232-1.936 5.303 5.303 0 0 1 1.87-1.276 6.142 6.142 0 0 1 2.398-.462c.822 0 1.57.147 2.244.44.69.293 1.284.704 1.782 1.232.499.528.88 1.151 1.144 1.87.27.754.389 1.554.352 2.354l-.022.946h-9.306l-.506-1.98h6.952l-.374.418v-.44a1.843 1.843 0 0 0-.352-.968 1.92 1.92 0 0 0-.77-.682 2.423 2.423 0 0 0-1.1-.242c-.572 0-1.063.117-1.474.352-.396.22-.696.55-.902.99-.205.425-.308.953-.308 1.584 0 .645.132 1.21.396 1.694.279.469.675.836 1.188 1.1.528.264 1.152.396 1.87.396.499 0 .939-.073 1.32-.22.396-.147.822-.396 1.276-.748l1.65 2.332a6.542 6.542 0 0 1-1.452.968 6.998 6.998 0 0 1-1.584.55 6.51 6.51 0 0 1-1.584.198Zm7.268-.22v-11.682h3.344l.154 3.806-.66-.726a4.746 4.746 0 0 1 .858-1.694c.394-.486.88-.889 1.43-1.188a3.602 3.602 0 0 1 1.738-.44c.264 0 .506.022.726.066.235.044.447.095.638.154l-.968 3.894c-.161-.103-.381-.183-.66-.242a3.152 3.152 0 0 0-.836-.11c-.323 0-.623.059-.902.176-.268.096-.51.254-.704.462a2.43 2.43 0 0 0-.462.726 2.72 2.72 0 0 0-.154.946v5.852h-3.542Zm15.026.22c-1.29 0-2.412-.257-3.366-.77-.953-.528-1.694-1.239-2.222-2.134-.528-.909-.792-1.943-.792-3.102 0-.895.147-1.716.44-2.464a5.743 5.743 0 0 1 1.232-1.936 5.303 5.303 0 0 1 1.87-1.276 6.142 6.142 0 0 1 2.398-.462c.822 0 1.57.147 2.244.44.69.293 1.284.704 1.782 1.232.499.528.88 1.151 1.144 1.87.27.754.389 1.554.352 2.354l-.022.946h-9.306l-.506-1.98h6.952l-.374.418v-.44a1.843 1.843 0 0 0-.352-.968 1.92 1.92 0 0 0-.77-.682 2.423 2.423 0 0 0-1.1-.242c-.572 0-1.063.117-1.474.352-.396.22-.696.55-.902.99-.205.425-.308.953-.308 1.584 0 .645.132 1.21.396 1.694.279.469.675.836 1.188 1.1.528.264 1.152.396 1.87.396.499 0 .939-.073 1.32-.22.396-.147.822-.396 1.276-.748l1.65 2.332a6.542 6.542 0 0 1-1.452.968 6.998 6.998 0 0 1-1.584.55 6.51 6.51 0 0 1-1.584.198Zm11.69.022c-1.012 0-1.914-.257-2.706-.77-.778-.528-1.394-1.247-1.848-2.156-.455-.924-.682-1.973-.682-3.146 0-1.173.227-2.215.682-3.124.454-.924 1.078-1.65 1.87-2.178s1.701-.792 2.728-.792c.528 0 1.034.081 1.518.242.484.161.924.381 1.32.66s.718.601.968.968c.249.352.396.719.44 1.1l-.836.198v-7.524h3.542v16.28h-3.278l-.198-2.662.704.11a2.21 2.21 0 0 1-.44 1.056 3.65 3.65 0 0 1-.924.902 5.01 5.01 0 0 1-1.32.594 4.853 4.853 0 0 1-1.54.242Zm.902-2.926c.542 0 1.012-.132 1.408-.396.396-.264.696-.631.902-1.1.22-.469.33-1.019.33-1.65 0-.645-.11-1.203-.33-1.672a2.486 2.486 0 0 0-.902-1.1c-.396-.264-.866-.396-1.408-.396-.543 0-1.012.132-1.408.396-.382.264-.682.631-.902 1.1-.22.469-.33 1.027-.33 1.672 0 .631.11 1.181.33 1.65.22.469.52.836.902 1.1.396.264.865.396 1.408.396Zm23.021 2.926a5.201 5.201 0 0 1-1.518-.22 5.406 5.406 0 0 1-1.32-.594 4.191 4.191 0 0 1-.968-.858 2.9 2.9 0 0 1-.506-1.034l.77-.264-.198 2.706h-3.278v-16.258h3.542v7.392l-.726-.264c.088-.381.256-.733.506-1.056.249-.337.564-.631.946-.88a4.765 4.765 0 0 1 1.254-.616c.454-.147.924-.22 1.408-.22 1.012 0 1.906.264 2.684.792.792.513 1.415 1.232 1.87 2.156.454.909.682 1.951.682 3.124 0 1.188-.228 2.244-.682 3.168-.44.909-1.049 1.628-1.826 2.156-.778.513-1.658.77-2.64.77Zm-.924-2.97c.528 0 .99-.132 1.386-.396.396-.264.696-.623.902-1.078.22-.469.33-1.019.33-1.65 0-.616-.11-1.159-.33-1.628-.206-.469-.506-.829-.902-1.078-.396-.249-.858-.374-1.386-.374-.543 0-1.012.125-1.408.374-.396.249-.704.609-.924 1.078-.22.469-.33 1.012-.33 1.628 0 .631.11 1.181.33 1.65.22.455.528.814.924 1.078.396.264.865.396 1.408.396Zm9.373 7.788 2.662-6.27.044 1.804-5.632-12.276h3.982l2.464 5.874c.132.293.257.609.374.946.118.337.206.66.264.968l-.484.286c.088-.22.184-.491.286-.814.118-.337.242-.697.374-1.078l2.156-6.182h4.004l-4.972 11.682-2.024 5.06h-3.498Zm26.625-4.84c-1.232 0-2.346-.198-3.344-.594a7.494 7.494 0 0 1-2.574-1.672 7.359 7.359 0 0 1-1.65-2.53c-.381-.983-.572-2.046-.572-3.19 0-1.144.198-2.193.594-3.146.4-.953.992-1.814 1.738-2.53a7.931 7.931 0 0 1 2.64-1.672c1.027-.396 2.142-.594 3.344-.594.851 0 1.65.11 2.398.33.763.22 1.452.521 2.068.902a6.587 6.587 0 0 1 1.562 1.32l-2.266 2.398a6.265 6.265 0 0 0-1.144-.88 5.196 5.196 0 0 0-1.232-.55 4.432 4.432 0 0 0-1.408-.22c-.645 0-1.239.117-1.782.352a4.48 4.48 0 0 0-1.408.99 4.322 4.322 0 0 0-.924 1.474 4.912 4.912 0 0 0-.33 1.826c0 .66.118 1.276.352 1.848.235.572.558 1.071.968 1.496.411.411.895.741 1.452.99a4.76 4.76 0 0 0 1.826.352c.455 0 .88-.073 1.276-.22a3.36 3.36 0 0 0 1.056-.594c.294-.249.528-.543.704-.88.176-.352.264-.726.264-1.122v-.572l.484.748h-4.246v-2.926h7.238c.03.161.052.381.066.66.015.279.022.55.022.814.015.264.022.462.022.594 0 .997-.183 1.914-.55 2.75a6.242 6.242 0 0 1-1.496 2.134 7 7 0 0 1-2.288 1.408 7.934 7.934 0 0 1-2.86.506Zm9.628-.22v-11.682h3.344l.11 2.376-.704.264a3.506 3.506 0 0 1 .858-1.43c.425-.44.931-.792 1.518-1.056a4.44 4.44 0 0 1 1.848-.396c.88 0 1.621.183 2.222.55.601.352 1.056.887 1.364 1.606.308.704.462 1.569.462 2.596v7.172h-3.542v-6.886c0-.469-.066-.858-.198-1.166a1.344 1.344 0 0 0-.616-.682c-.264-.161-.594-.235-.99-.22a2.33 2.33 0 0 0-.858.154 1.72 1.72 0 0 0-.682.418 2.08 2.08 0 0 0-.462.616 1.87 1.87 0 0 0-.154.77v6.996h-3.52Zm19.408.22c-1.218 0-2.303-.264-3.256-.792a6.075 6.075 0 0 1-2.244-2.156c-.543-.909-.814-1.951-.814-3.124s.271-2.215.814-3.124a6.075 6.075 0 0 1 2.244-2.156c.953-.528 2.038-.792 3.256-.792 1.217 0 2.295.264 3.234.792a5.882 5.882 0 0 1 2.244 2.156c.542.909.814 1.951.814 3.124s-.272 2.215-.814 3.124a5.882 5.882 0 0 1-2.244 2.156c-.939.528-2.017.792-3.234.792Zm0-3.036c.528 0 .997-.132 1.408-.396.41-.264.733-.623.968-1.078.234-.455.344-.975.33-1.562.014-.587-.096-1.107-.33-1.562a2.744 2.744 0 0 0-.968-1.1 2.55 2.55 0 0 0-1.408-.396c-.528 0-1.005.132-1.43.396a2.715 2.715 0 0 0-.968 1.1c-.235.455-.345.975-.33 1.562-.015.587.095 1.107.33 1.562.234.455.557.814.968 1.078.425.264.902.396 1.43.396Zm12.474 3.036c-1.144 0-2.156-.183-3.036-.55-.865-.367-1.554-.858-2.068-1.474l2.134-1.848a4.39 4.39 0 0 0 1.54 1.012c.521.196 1.071.3 1.628.308.206 0 .389-.022.55-.066.162-.044.294-.103.396-.176a.937.937 0 0 0 .264-.286.875.875 0 0 0 .088-.396c0-.293-.132-.521-.396-.682a4.368 4.368 0 0 0-.66-.264c-.308-.103-.704-.22-1.188-.352a10.81 10.81 0 0 1-1.804-.616 4.7 4.7 0 0 1-1.232-.858 3.489 3.489 0 0 1-.682-1.012 3.247 3.247 0 0 1-.242-1.276c0-.543.125-1.034.374-1.474.264-.44.609-.821 1.034-1.144.44-.323.939-.565 1.496-.726a5.93 5.93 0 0 1 1.76-.264 7.577 7.577 0 0 1 1.848.22 7.247 7.247 0 0 1 1.628.616c.514.264.968.579 1.364.946l-1.848 2.068a4.633 4.633 0 0 0-.902-.66 4.57 4.57 0 0 0-1.012-.484 3.1 3.1 0 0 0-.968-.176c-.22 0-.418.022-.594.066a.965.965 0 0 0-.418.176.706.706 0 0 0-.264.286.849.849 0 0 0 .022.792c.088.132.206.242.352.33.147.088.382.191.704.308.323.103.763.235 1.32.396.69.191 1.284.403 1.782.638.499.235.895.513 1.188.836.235.249.411.543.528.88.118.323.176.675.176 1.056 0 .748-.212 1.415-.638 2.002-.41.572-.982 1.027-1.716 1.364-.733.323-1.569.484-2.508.484Zm7.096-.22v-11.682h3.52v11.682h-3.52Zm1.76-13.992c-.66 0-1.181-.154-1.562-.462-.367-.323-.55-.777-.55-1.364 0-.528.19-.961.572-1.298.381-.337.894-.506 1.54-.506.66 0 1.173.161 1.54.484.366.308.55.748.55 1.32 0 .543-.191.983-.572 1.32-.367.337-.873.506-1.518.506Zm8.948 14.212c-1.144 0-2.156-.183-3.036-.55-.866-.367-1.555-.858-2.068-1.474l2.134-1.848c.454.455.968.792 1.54 1.012.521.196 1.071.3 1.628.308.185.002.37-.02.55-.066.161-.044.293-.103.396-.176a.987.987 0 0 0 .264-.286.875.875 0 0 0 .088-.396c0-.293-.132-.521-.396-.682a4.368 4.368 0 0 0-.66-.264c-.308-.103-.704-.22-1.188-.352a10.602 10.602 0 0 1-1.804-.616 4.62 4.62 0 0 1-1.232-.858 3.489 3.489 0 0 1-.682-1.012 3.208 3.208 0 0 1-.242-1.276c0-.543.124-1.034.374-1.474.264-.44.608-.821 1.034-1.144.44-.323.938-.565 1.496-.726a5.93 5.93 0 0 1 1.76-.264c.645 0 1.261.073 1.848.22a7.247 7.247 0 0 1 1.628.616c.513.264.968.579 1.364.946l-1.848 2.068a4.674 4.674 0 0 0-.902-.66 4.57 4.57 0 0 0-1.012-.484 3.1 3.1 0 0 0-.968-.176c-.22 0-.418.022-.594.066a.965.965 0 0 0-.418.176.687.687 0 0 0-.264.286.74.74 0 0 0-.088.374.827.827 0 0 0 .11.418c.088.132.205.242.352.33.146.088.381.191.704.308.322.103.762.235 1.32.396.689.191 1.283.403 1.782.638.498.235.894.513 1.188.836.234.249.41.543.528.88.117.323.176.675.176 1.056 0 .748-.213 1.415-.638 2.002-.411.572-.983 1.027-1.716 1.364-.734.323-1.57.484-2.508.484Z"/>
    <path fill="#01C9C9" d="M269.501 436.757c-1.144 0-2.156-.183-3.036-.55-.865-.367-1.554-.858-2.068-1.474l2.134-1.848c.435.442.96.787 1.54 1.012.52.196 1.071.3 1.628.308.206 0 .389-.022.55-.066.162-.044.294-.103.396-.176a.975.975 0 0 0 .264-.286.875.875 0 0 0 .088-.396c0-.293-.132-.521-.396-.682a4.41 4.41 0 0 0-.66-.264c-.308-.103-.704-.22-1.188-.352a10.81 10.81 0 0 1-1.804-.616 4.667 4.667 0 0 1-1.232-.858 3.489 3.489 0 0 1-.682-1.012 3.229 3.229 0 0 1-.242-1.276c0-.543.125-1.034.374-1.474.264-.44.609-.821 1.034-1.144.44-.323.939-.565 1.496-.726a5.93 5.93 0 0 1 1.76-.264 7.577 7.577 0 0 1 1.848.22 7.2 7.2 0 0 1 1.628.616c.514.264.968.579 1.364.946l-1.848 2.068a4.633 4.633 0 0 0-.902-.66 4.613 4.613 0 0 0-1.012-.484 3.077 3.077 0 0 0-.968-.176c-.22 0-.418.022-.594.066a.965.965 0 0 0-.418.176.7.7 0 0 0-.264.286.849.849 0 0 0 .022.792c.088.132.206.242.352.33.147.088.382.191.704.308.323.103.763.235 1.32.396.69.191 1.284.403 1.782.638.499.235.895.513 1.188.836.235.249.411.543.528.88.118.323.176.675.176 1.056 0 .748-.212 1.415-.638 2.002-.41.572-.982 1.027-1.716 1.364-.733.323-1.569.484-2.508.484Zm12.464 0c-1.291 0-2.413-.257-3.366-.77-.954-.528-1.694-1.239-2.222-2.134-.528-.909-.792-1.943-.792-3.102 0-.895.146-1.716.44-2.464a5.733 5.733 0 0 1 1.232-1.936 5.303 5.303 0 0 1 1.87-1.276 6.103 6.103 0 0 1 2.398-.462c.821 0 1.569.147 2.244.44a5.25 5.25 0 0 1 1.782 1.232c.498.528.88 1.151 1.144 1.87.264.719.381 1.503.352 2.354l-.022.946h-9.306l-.506-1.98h6.952l-.374.418v-.44a1.863 1.863 0 0 0-.352-.968 1.942 1.942 0 0 0-.77-.682 2.423 2.423 0 0 0-1.1-.242c-.572 0-1.064.117-1.474.352-.4.224-.717.571-.902.99-.206.425-.308.953-.308 1.584 0 .645.132 1.21.396 1.694.282.473.694.855 1.188 1.1.528.264 1.151.396 1.87.396.449.008.897-.066 1.32-.22.396-.147.821-.396 1.276-.748l1.65 2.332a6.66 6.66 0 0 1-1.452.968 7.115 7.115 0 0 1-1.584.55 6.51 6.51 0 0 1-1.584.198Zm7.289-.22v-16.28h3.52v16.28h-3.52Zm7.328 0v-12.254c0-.763.162-1.452.484-2.068.338-.616.8-1.1 1.386-1.452.602-.367 1.298-.55 2.09-.55.558 0 1.071.081 1.54.242.47.161.888.389 1.254.682l-1.012 2.574a3.587 3.587 0 0 0-.55-.242 1.539 1.539 0 0 0-.484-.088 1.454 1.454 0 0 0-.66.132.835.835 0 0 0-.396.418c-.08.21-.118.435-.11.66v11.946h-3.542Zm-1.694-8.448v-2.904h7.634v2.904h-7.634Zm9.108 3.74v-3.234h7.612v3.234h-7.612ZM53.96 464.757c-1.13 0-2.142-.264-3.037-.792a5.912 5.912 0 0 1-2.134-2.156c-.513-.924-.77-1.965-.77-3.124s.258-2.193.77-3.102a5.842 5.842 0 0 1 2.134-2.178c.895-.528 1.907-.792 3.036-.792 1.04 0 1.995.183 2.86.55.88.367 1.578.88 2.09 1.54l-1.913 2.288a4.5 4.5 0 0 0-.727-.66 3.47 3.47 0 0 0-.923-.484 3.19 3.19 0 0 0-1.056-.176c-.557 0-1.048.132-1.474.396a2.55 2.55 0 0 0-.99 1.056c-.234.455-.352.975-.352 1.562 0 .557.118 1.063.352 1.518.25.455.587.814 1.01 1.078.426.264.91.396 1.453.396.383 0 .733-.044 1.056-.132.315-.099.612-.247.88-.44.288-.199.547-.436.77-.704l1.893 2.31c-.498.631-1.195 1.129-2.09 1.496-.88.367-1.826.55-2.838.55Zm10.786.022c-.864 0-1.605-.183-2.221-.55-.602-.381-1.07-.924-1.408-1.628-.322-.704-.484-1.547-.484-2.53v-7.216h3.54v6.732c0 .469.076.873.22 1.21.148.337.368.601.66.792.295.176.648.264 1.057.264.308 0 .588-.051.837-.154.263-.103.483-.242.66-.418.19-.191.338-.403.44-.638.103-.249.154-.521.154-.814v-6.974h3.542v11.682H68.42l-.155-2.398.66-.264a3.896 3.896 0 0 1-.88 1.496c-.41.425-.902.77-1.474 1.034a4.528 4.528 0 0 1-1.825.374Zm14.014-.022c-1.144 0-2.156-.183-3.035-.55-.865-.367-1.554-.858-2.07-1.474l2.135-1.848c.435.442.96.787 1.54 1.012.52.196 1.072.3 1.629.308.206 0 .388-.022.55-.066.162-.044.293-.103.395-.176a.96.96 0 0 0 .264-.286.868.868 0 0 0 .088-.396c0-.293-.132-.521-.395-.682a4.355 4.355 0 0 0-.66-.264c-.308-.103-.704-.22-1.188-.352a10.833 10.833 0 0 1-1.805-.616 4.693 4.693 0 0 1-1.231-.858 3.526 3.526 0 0 1-.683-1.012 3.248 3.248 0 0 1-.242-1.276c0-.543.125-1.034.374-1.474.264-.44.61-.821 1.034-1.144.44-.323.94-.565 1.497-.726a5.932 5.932 0 0 1 1.76-.264 7.563 7.563 0 0 1 1.847.22 7.146 7.146 0 0 1 1.629.616c.495.251.954.57 1.364.946l-1.85 2.068a4.62 4.62 0 0 0-.9-.66 4.586 4.586 0 0 0-1.013-.484 3.102 3.102 0 0 0-.968-.176c-.22 0-.417.022-.593.066a.974.974 0 0 0-.42.176.709.709 0 0 0-.262.286.852.852 0 0 0 .022.792c.088.132.206.242.352.33.147.088.382.191.704.308.322.103.762.235 1.32.396.69.191 1.284.403 1.782.638.499.235.895.513 1.188.836.234.249.41.543.528.88.117.323.175.675.175 1.056 0 .748-.212 1.415-.638 2.002-.41.572-.981 1.027-1.715 1.364-.734.323-1.57.484-2.51.484Zm7.866-.22v-14.63h3.52v14.63h-3.52Zm-2.068-8.602v-3.08h7.854v3.08h-7.854Zm15.2 8.822c-1.216 0-2.301-.264-3.254-.792a6.087 6.087 0 0 1-2.245-2.156c-.543-.909-.814-1.951-.814-3.124s.272-2.215.815-3.124a6.084 6.084 0 0 1 2.243-2.156c.954-.528 2.038-.792 3.257-.792 1.217 0 2.295.264 3.234.792a5.882 5.882 0 0 1 2.244 2.156c.542.909.814 1.951.814 3.124s-.272 2.215-.814 3.124a5.882 5.882 0 0 1-2.244 2.156c-.939.528-2.018.792-3.236.792Zm0-3.036c.53 0 .999-.132 1.41-.396.41-.264.733-.623.968-1.078.234-.455.344-.975.33-1.562.014-.587-.096-1.107-.33-1.562a2.744 2.744 0 0 0-.968-1.1 2.546 2.546 0 0 0-1.41-.396c-.527 0-1.004.132-1.43.396a2.716 2.716 0 0 0-.966 1.1c-.236.455-.346.975-.33 1.562-.016.587.094 1.107.33 1.562.234.455.556.814.968 1.078.424.264.9.396 1.428.396Zm12.96 3.058c-1.012 0-1.914-.257-2.706-.77-.777-.528-1.393-1.247-1.848-2.156-.454-.924-.682-1.973-.682-3.146 0-1.173.228-2.215.682-3.124.455-.924 1.078-1.65 1.87-2.178s1.702-.792 2.728-.792c.528 0 1.034.081 1.518.242.484.161.924.381 1.32.66s.719.601.968.968c.25.352.396.719.44 1.1l-.836.198v-7.524h3.542v16.28h-3.278l-.198-2.662.704.11c-.044.367-.19.719-.44 1.056a3.65 3.65 0 0 1-.924.902 5.01 5.01 0 0 1-1.32.594 4.853 4.853 0 0 1-1.54.242Zm.902-2.926c.543 0 1.012-.132 1.408-.396.401-.271.715-.653.902-1.1.22-.469.33-1.019.33-1.65 0-.645-.11-1.203-.33-1.672a2.493 2.493 0 0 0-.902-1.1c-.396-.264-.865-.396-1.408-.396-.542 0-1.012.132-1.408.396a2.677 2.677 0 0 0-.902 1.1c-.22.469-.33 1.027-.33 1.672 0 .631.11 1.181.33 1.65.22.469.521.836.902 1.1.396.264.866.396 1.408.396Zm9.212 2.684v-11.682h3.52v11.682h-3.52Zm1.76-13.992c-.66 0-1.181-.154-1.562-.462-.367-.323-.55-.777-.55-1.364 0-.528.19-.961.572-1.298.381-.337.894-.506 1.54-.506.66 0 1.173.161 1.54.484.366.308.55.748.55 1.32 0 .543-.191.983-.572 1.32-.367.337-.873.506-1.518.506Zm9.322 14.19c-.983 0-1.863-.257-2.64-.77-.763-.528-1.372-1.247-1.826-2.156-.455-.924-.682-1.965-.682-3.124 0-1.188.227-2.237.682-3.146.454-.909 1.078-1.621 1.87-2.134.792-.528 1.694-.792 2.706-.792.557 0 1.063.081 1.518.242.469.161.88.389 1.232.682.352.279.652.609.902.99.249.367.432.763.55 1.188l-.726-.088v-2.772h3.498v11.682h-3.564v-2.816l.792-.022a3.815 3.815 0 0 1-.572 1.166c-.27.372-.597.699-.968.968-.39.283-.82.505-1.276.66-.47.161-.968.242-1.496.242Zm.968-2.97c.542 0 1.012-.125 1.408-.374.396-.249.704-.601.924-1.056.22-.469.33-1.019.33-1.65s-.11-1.173-.33-1.628c-.22-.469-.528-.829-.924-1.078-.396-.264-.866-.396-1.408-.396-.528 0-.99.132-1.386.396-.382.249-.682.609-.902 1.078-.22.455-.33.997-.33 1.628 0 .631.11 1.181.33 1.65.22.455.52.807.902 1.056.396.249.858.374 1.386.374Zm9.187 2.772v-16.28h3.52v16.28h-3.52Z"/>
    <mask id="b" width="267" height="169" x="62" y="221" maskUnits="userSpaceOnUse" style="mask-type:luminance">
      <path fill="#fff" d="M311.693 221H79.306c-9.338 0-16.908 7.57-16.908 16.908v135.184c0 9.338 7.57 16.908 16.908 16.908h232.387c9.338 0 16.908-7.57 16.908-16.908V237.908c0-9.338-7.57-16.908-16.908-16.908Z"/>
    </mask>
    <g mask="url(#b)">
      <path fill="url(#c)" d="M311.693 221H79.306c-9.338 0-16.908 7.57-16.908 16.908v135.184c0 9.338 7.57 16.908 16.908 16.908h232.387c9.338 0 16.908-7.57 16.908-16.908V237.908c0-9.338-7.57-16.908-16.908-16.908Z"/>
      <path fill="#D4E467" d="M268.825 348.159c-46.446 15.772-94.467 32.078-121.056 69.693-.374.524-.735 1.06-1.097 1.595h1.015c.268-.396.537-.792.817-1.176 26.46-37.429 74.376-53.701 120.706-69.426 36.517-12.398 71.938-24.448 95.844-46.035v-1.164c-23.812 21.902-59.467 34.033-96.229 46.513Z"/>
      <path fill="#D4E467" d="M361.899 283.981c-22.059 32.782-62.661 48.353-105.646 64.854-43.476 16.676-88.833 33.921-113.206 70.61h1.11c24.326-36.177 69.368-53.306 112.54-69.866 43.114-16.536 83.82-32.154 106.008-65.133.818-1.209 1.589-2.43 2.349-3.663v-1.791a85.294 85.294 0 0 1-3.155 4.989Z"/>
      <path fill="#D4E467" d="M364.492 221c-.547 23.145-6.41 42.953-17.831 60.289-21.934 33.306-62.551 50.769-101.827 67.661-40.372 17.371-82.049 35.301-104.507 70.497h1.2c22.401-34.671 63.763-52.473 103.832-69.715 39.392-16.939 80.125-34.461 102.187-67.953 10.105-15.341 15.874-32.571 17.506-52.321V221h-.56Z"/>
      <path fill="#D4E467" d="M234.544 349.499c37.569-18.456 75.965-35.966 97.902-69.867 11.273-17.382 17.521-36.654 19.013-58.632h-1.096c-1.503 21.78-7.705 40.865-18.871 58.119-21.821 33.691-60.229 50.898-97.553 69.563-37.592 18.793-76.489 37.062-97.237 70.765h1.282c20.632-33.19 58.735-51.353 96.56-69.948Z"/>
      <path fill="#D4E467" d="M222.142 349.965c35.233-20.368 73.088-38.847 94.86-73.086 10.899-17.149 17.466-35.534 19.959-55.879h-1.182c-2.494 20.135-9.013 38.345-19.806 55.331-21.643 34.052-59.673 52.006-94.532 72.783-36.989 22.048-69.846 38.38-88.363 70.333h1.1c17.546-30.88 52.639-49.055 87.965-69.482h-.001Z"/>
      <path fill="#D4E467" d="M214.465 348.713c40.044-25.876 66.339-40.576 86.577-74.024 10.346-17.103 17.115-34.778 20.517-53.689h-1.212c-3.402 18.713-10.113 36.201-20.365 53.129-20.133 33.238-50.588 50.119-86.018 73.697-22.09 14.7-66.024 38.173-82.697 71.621h1.34c15.74-31.57 53.617-52.5 81.87-70.746l-.012.012Z"/>
      <path fill="#D4E467" d="M205.404 347.049c30.266-20.824 61.558-42.37 81.048-75.933 9.763-16.834 16.473-33.096 20.609-50.116h-1.259c-4.124 16.822-10.764 32.909-20.433 49.556-19.363 33.376-50.561 54.853-80.746 75.629-25.094 18.316-62.001 43.164-76.074 73.262h1.317c14.62-31.568 53.135-55.565 75.526-72.398h.012Z"/>
      <path fill="#D4E467" d="M191.431 350.233c28.345-21.99 57.26-45.578 77.15-80.237 7.142-12.447 15.505-28.639 21.263-48.996h-1.384c-5.723 20.077-13.981 36.082-21.053 48.401-19.808 34.508-48.874 57.723-76.905 79.958-27.997 22.211-51.643 42.101-65.577 70.088h1.5c13.737-27.45 36.219-46.885 65.006-69.214Z"/>
      <path fill="#D4E467" d="M183.405 349.382c25.463-23.297 52.264-47.387 71.478-81.719 7.389-13.206 15.326-28.628 21.366-46.663h-1.466c-6.005 17.767-13.837 32.991-21.146 46.045-19.12 34.192-45.851 58.212-71.256 81.45-24.217 22.142-47.201 43.339-60.177 70.952h1.548c12.952-27.17 35.703-48.157 59.653-70.065Z"/>
      <path fill="#D4E467" d="M240.42 265.321c6.4-11.748 14.524-26.646 21.331-44.321h-1.55c-6.749 17.406-14.757 32.094-21.086 43.691-18.312 33.553-41.985 58.122-64.878 81.875-23.207 24.103-44.083 45.768-55.657 72.881h1.596c11.563-26.705 32.241-48.171 55.204-72.018 22.95-23.811 46.67-48.439 65.04-82.12v.012Z"/>
      <path fill="#D4E467" d="M226.833 262.997c6.02-11.363 13.272-25.537 20.419-41.997h-1.674c-7.065 16.18-14.189 30.133-20.128 41.332-17.199 32.419-38.06 57.174-58.246 81.112-21.488 25.49-40.861 48.483-51.344 76.003h1.639c10.483-27.123 29.681-49.907 50.948-75.14 20.221-23.985 41.14-48.786 58.375-81.31h.011Z"/>
      <path fill="#D4E467" d="M213.868 260.654c2.05-3.943 4.24-8.003 6.56-12.308 4.545-8.435 9.418-17.523 14.138-27.346h-1.78c-4.627 9.555-9.371 18.421-13.811 26.658-2.319 4.305-4.51 8.365-6.56 12.308-15.954 30.648-34.111 55.042-51.682 78.632-20.16 27.066-38.411 51.577-48.11 79.647-.141.397-.258.805-.387 1.202h1.699c9.582-28.21 27.891-52.826 48.156-80.021 16.775-22.516 35.787-48.054 51.777-78.783v.011Z"/>
      <path fill="#D4E467" d="M200.079 258.307c3.046-6.043 6.546-12.424 10.245-19.202 3.127-5.704 6.43-11.747 9.743-18.105h-1.878c-3.186 6.09-6.359 11.899-9.358 17.382-3.722 6.778-7.211 13.182-10.268 19.237-14.096 27.928-29.183 51.131-43.78 73.564-17.806 27.391-34.107 52.438-43.441 79.573a153.486 153.486 0 0 0-2.731 8.691h1.762c8.635-30.203 26.324-57.419 45.857-87.459 13.932-21.418 29.719-45.695 43.849-73.681Z"/>
      <path fill="#D4E467" d="M186.361 255.976c3.996-8.131 8.996-16.94 14.289-26.273 1.589-2.8 3.249-5.716 4.919-8.703h-1.986a1142.39 1142.39 0 0 1-4.487 7.922c-5.293 9.344-10.317 18.176-14.324 26.331-11.696 23.776-23.567 44.461-35.03 64.469-16.533 28.827-31.126 54.284-40.135 80.417a186.108 186.108 0 0 0-5.526 19.308h1.787c7.548-32.888 25.004-63.338 45.417-98.944 11.485-20.019 23.356-40.727 35.064-64.539l.012.012Z"/>
      <path fill="#D4E467" d="M172.98 253.643c4.725-9.975 11.199-21 18.09-32.643h-2.073c-6.717 11.363-13.006 22.12-17.662 31.908-8.234 17.359-16.307 33.273-24.113 48.672-15.16 29.913-28.745 56.711-37.814 83.264-3.926 11.503-6.972 22.959-8.953 34.603h1.807c6.602-38.161 24.993-74.491 46.593-117.108 7.806-15.4 15.879-31.337 24.125-48.708v.012Z"/>
      <path fill="#D4E467" d="M159.485 251.273c4.325-9.31 10.386-19.505 17.089-30.273h-2.168c-6.505 10.488-12.368 20.427-16.623 29.549-3.299 7.093-6.54 13.999-9.699 20.754-15.958 34.041-29.982 63.963-39.786 92.486v-.012c-6.516 18.911-11.157 37.203-13.279 55.67h1.9c5.376-46.034 26.452-91.064 52.867-147.409a5592.407 5592.407 0 0 0 9.711-20.754l-.012-.011Z"/>
      <path fill="#D4E467" d="M162.074 221.012h-2.314c-6.249 9.647-11.559 18.642-15.459 27.193-14.367 31.521-27.042 60.452-36.616 88.076h.023c-9.926 28.651-16.481 55.891-18.126 83.166h1.927c3.29-53.278 25.456-106.556 54.601-170.496 3.994-8.749 9.492-18 15.964-27.951v.012Z"/>
      <path fill="#D4E467" d="M146.67 221h-2.372c-5.686 8.703-10.512 17.02-13.931 24.836-9.581 21.874-18.093 42.895-25.116 63.369-13.035 38.042-20.92 74.171-21.105 110.242h1.99c.313-55.191 18.777-110.604 46.08-172.841 3.524-8.026 8.535-16.612 14.454-25.594V221Z"/>
      <path fill="#D4E467" d="M119.006 244.25c3.136-7.291 7.587-14.991 13.166-23.25h-2.466c-5.309 7.956-9.56 15.41-12.614 22.492-6.412 14.885-12.038 29.269-16.865 43.221-16.818 48.553-24.064 91.81-22.115 132.734h2.068c-2.49-52.415 10.205-108.726 38.838-175.185l-.012-.012Z"/>
      <path fill="#D4E467" d="M105.247 241.919c2.646-6.382 6.415-13.265 11.521-20.919h-2.541c-4.804 7.327-8.388 13.942-10.952 20.126a523.063 523.063 0 0 0-11.604 30.649c-17.867 52.258-24.34 100.676-19.63 147.672h2.077c-5.593-55.781 4.675-113.604 31.118-177.539l.011.011Z"/>
      <path fill="#D4E467" d="M82.473 259.555v.012c-18.67 54.596-24.112 107.489-16.36 159.88h2.17c-8.703-58.738-.743-118.14 23.96-179.875 2.32-5.763 5.663-11.934 10.026-18.572h-2.6c-4.084 6.323-7.24 12.237-9.48 17.779a428.568 428.568 0 0 0-7.716 20.776Zm-9.11-7.489a378.76 378.76 0 0 1 5.43-14.839c1.996-5.11 4.84-10.522 8.506-16.227h-2.657c-3.319 5.273-6.01 10.429-7.96 15.422a367.824 367.824 0 0 0-5.326 14.559 342.673 342.673 0 0 0-8.958 30.716v9.776c2.762-12.902 6.382-26.038 10.954-39.407h.011Z"/>
      <path fill="url(#d)" d="M62.398 221h266.203v169H62.398V221Z"/>
    </g>
    <path stroke="url(#e)" stroke-width=".845" d="M311.693 221.424H79.306c-9.104 0-16.485 7.38-16.485 16.485v135.185c0 9.104 7.38 16.485 16.485 16.485h232.387c9.105 0 16.485-7.381 16.485-16.485V237.909c0-9.105-7.38-16.485-16.485-16.485Z"/>
    <mask id="f" width="63" height="18" x="75" y="242" maskUnits="userSpaceOnUse" style="mask-type:luminance">
      <path fill="#fff" d="M75.926 242.98h61.292v16.908H75.926V242.98Z"/>
    </mask>
    <g mask="url(#f)">
      <path fill="#fff" fill-rule="evenodd" d="M90.146 246.016c-3.097-3.137-8.241-3.254-11.49-.265a8.469 8.469 0 0 0-.843.906l6.45 6.233 6.452-6.233a7.751 7.751 0 0 0-.57-.641Zm-5.882-1.405c1.9 0 3.67.708 5 1.999l-5 4.827-5-4.827c1.33-1.291 3.1-1.999 5-1.999Zm5.646 4.02 1.31-1.266a7.627 7.627 0 0 1 1.175 4.068c0 4.336-3.64 7.85-8.13 7.85-4.492 0-8.131-3.514-8.131-7.85 0-1.434.406-2.843 1.178-4.068l.638.62.672.649a2.807 2.807 0 0 0 0 3.698c1.057 1.222 2.94 1.383 4.206.363l1.436 1.387 1.44-1.39c1.11.895 2.72.895 3.83 0a2.812 2.812 0 0 0 .376-4.061Zm-.183 1.85a2 2 0 0 0-.44-1.248l-2.964 2.862c.924.689 2.25.524 2.964-.367.285-.356.44-.796.44-1.247Zm-8.814 2.041c.467 0 .923-.15 1.29-.426l-2.962-2.861a1.998 1.998 0 0 0 .38 2.865 2.19 2.19 0 0 0 1.292.422Zm20.038-.413c.912.008 2.114.019 3.317.019 2.612 0 3.662-.637 3.662-2.434 0-1.841-1.08-2.493-3.557-2.493-.976 0-3.573.014-4.698.043 0 .575-.002 1.145-.004 1.707-.003 1.098-.006 2.161.004 3.148.273 0 .72.005 1.276.01Zm-3.047-.836c0-2.304-.016-3.956-.06-5.434h6.844c3.182 0 4.998.956 4.998 3.826 0 2.768-1.816 3.84-5.058 3.84-1.621 0-2.582 0-4.953-.043.015 1.275.045 2.391.105 3.246h-1.937c.046-1.565.06-3.116.06-5.435Zm22.892 2.044c0 1.348-1.396 2.434-4.413 2.434-2.237 0-3.047-.521-3.047-1.507 0-1.029.99-1.507 3.437-1.507 1.456 0 2.822.072 4.023.203v.377Zm.045 1.565c-.015.464-.03.942-.03 1.333 0 .421.105.493.465.493h1.411c-.15-.493-.21-1.565-.21-2.594 0-.538.011-1.013.023-1.479.011-.45.022-.892.022-1.376 0-1.986-1.246-3.377-5.254-3.377-3.692 0-5.208 1.174-5.178 3.377.225-.029.525-.029.825-.029.3 0 .571 0 .781.014-.045-1.42.87-2.159 3.557-2.159 2.837 0 3.573.869 3.573 2.261 0 .246 0 .551-.015.869-.946-.174-2.432-.29-4.263-.29-3.408 0-4.864.798-4.864 2.508s1.336 2.478 4.128 2.478c2.627 0 4.338-.754 4.939-2.044l.09.015Zm12.51-4.457c.556-.935 1.072-1.803 1.346-2.339h1.996c-.497.778-1.174 1.922-1.89 3.13-1.057 1.784-2.197 3.708-2.958 4.797-1.486 2.232-2.402 3.044-4.653 3.044-1.171 0-2.117-.29-3.002-.725.12-.275.405-1.087.465-1.406.796.479 1.621.768 2.672.768 1.156 0 1.876-.333 2.657-1.536l.045-.087c-.301 0-.586 0-.811.015-.508-.752-1.318-2.067-2.185-3.474-1.005-1.63-2.085-3.383-2.858-4.526h2.086c.171.359.647 1.119 1.192 1.988.556.887 1.183 1.888 1.63 2.693.478.838.934 1.688 1.366 2.551h.105c.21-.361.459-.808.773-1.373.203-.365.433-.779.698-1.25.397-.708.874-1.511 1.326-2.27Z" clip-rule="evenodd"/>
    </g>
    <path fill="#fff" d="m285.812 356.455-6.176 14.716h-4.03l-3.038-11.746c-.185-.723-.344-.988-.907-1.292-.915-.497-2.429-.962-3.76-1.252l.091-.426h6.486c.424-.002.834.149 1.156.424.323.275.536.656.601 1.075l1.606 8.517 3.967-10.016h4.004Zm15.789 9.912c.016-3.885-5.378-4.099-5.341-5.835.012-.528.515-1.089 1.616-1.233a7.206 7.206 0 0 1 3.76.66l.669-3.122a10.243 10.243 0 0 0-3.566-.653c-3.768 0-6.42 2.002-6.443 4.867-.024 2.118 1.893 3.298 3.337 4.005 1.486.72 1.986 1.183 1.978 1.827-.01.99-1.183 1.424-2.28 1.441-1.917.03-3.027-.516-3.916-.928l-.69 3.223c.891.409 2.534.766 4.238.782 4.004 0 6.624-1.975 6.638-5.034Zm9.948 4.804h3.526l-3.076-14.716h-3.255a1.735 1.735 0 0 0-1.624 1.079l-5.718 13.637h4.002l.796-2.199h4.891l.458 2.199Zm-4.252-5.214 2.005-5.527 1.156 5.527h-3.161Zm-16.039-9.502-3.151 14.716h-3.813l3.155-14.716h3.809Z"/>
    <mask id="g" width="38" height="27" x="265" y="296" maskUnits="userSpaceOnUse" style="mask-type:luminance">
      <path fill="#fff" d="M299.345 296.102h-30.123a3.383 3.383 0 0 0-3.382 3.382v19.584a3.381 3.381 0 0 0 3.382 3.382h30.123a3.382 3.382 0 0 0 3.382-3.382v-19.584a3.38 3.38 0 0 0-3.382-3.382Z"/>
    </mask>
    <g mask="url(#g)">
      <path fill="url(#h)" d="M299.345 296.102h-30.123a3.383 3.383 0 0 0-3.382 3.382v19.584a3.381 3.381 0 0 0 3.382 3.382h30.123a3.382 3.382 0 0 0 3.382-3.382v-19.584a3.38 3.38 0 0 0-3.382-3.382Z"/>
      <path stroke="#767676" stroke-width=".171" d="M279.402 299.525a14.602 14.602 0 0 1 4.76-.789c1.686 0 3.294.281 4.76.789m-9.52 19.5c1.532.527 3.141.794 4.76.79 1.686 0 3.294-.281 4.76-.79"/>
      <path stroke="#767676" stroke-width=".171" d="M279.419 300.052c0 1.665-.657 3.21-1.781 4.479h-15.935c-1.124-1.269-1.781-2.814-1.781-4.479 0-4.267 4.335-7.773 9.748-7.773 5.413 0 9.749 3.506 9.749 7.773Zm-17.716 4.742h15.935c1.124 1.269 1.781 2.814 1.781 4.48 0 1.665-.657 3.21-1.781 4.479h-15.935c-1.124-1.269-1.781-2.814-1.781-4.479 0-1.666.657-3.211 1.781-4.48Zm0 9.222h15.935c1.124 1.269 1.781 2.814 1.781 4.479 0 4.267-4.336 7.773-9.749 7.773s-9.748-3.506-9.748-7.773c0-1.665.657-3.21 1.781-4.479Zm46.698-13.964c0 1.665-.657 3.21-1.781 4.479h-15.935c-1.124-1.269-1.781-2.814-1.781-4.479 0-4.267 4.336-7.773 9.749-7.773s9.748 3.506 9.748 7.773Zm-17.716 4.742h15.935c1.124 1.269 1.781 2.814 1.781 4.48 0 1.665-.657 3.21-1.781 4.479h-15.935c-1.124-1.269-1.781-2.814-1.781-4.479 0-1.666.657-3.211 1.781-4.48Zm0 9.222h15.935c1.124 1.269 1.781 2.814 1.781 4.479 0 4.267-4.335 7.773-9.748 7.773-5.413 0-9.749-3.506-9.749-7.773 0-1.665.657-3.21 1.781-4.479Z"/>
      <path stroke="#767676" stroke-width=".171" d="M289.433 302.586c-1.526-.77-3.333-1.217-5.27-1.217-1.936 0-3.744.447-5.269 1.217m10.539 13.375c-1.526.77-3.333 1.217-5.27 1.217-1.936 0-3.744-.447-5.269-1.217"/>
    </g>
    <path stroke="#32322F" stroke-width="1.691" d="M299.344 295.256H269.22a4.227 4.227 0 0 0-4.227 4.227v19.584c0 1.121.446 2.196 1.239 2.988a4.223 4.223 0 0 0 2.988 1.239h30.124a4.227 4.227 0 0 0 4.227-4.227v-19.584a4.222 4.222 0 0 0-2.609-3.906 4.237 4.237 0 0 0-1.618-.321Z"/>
  </g>
  <defs>
    <linearGradient id="c" x1="328.601" x2="57.193" y1="305.124" y2="305.124" gradientUnits="userSpaceOnUse">
      <stop stop-color="#363633"/>
      <stop offset="1" stop-color="#010101"/>
    </linearGradient>
    <linearGradient id="d" x1="328.601" x2="62.398" y1="313.011" y2="313.011" gradientUnits="userSpaceOnUse">
      <stop stop-color="#363633" stop-opacity="0"/>
      <stop offset="1"/>
    </linearGradient>
    <linearGradient id="e" x1="62.398" x2="330.113" y1="221.001" y2="387.571" gradientUnits="userSpaceOnUse">
      <stop stop-color="#31312E"/>
      <stop offset=".517" stop-color="#53534D"/>
      <stop offset="1" stop-color="#31312E"/>
    </linearGradient>
    <linearGradient id="h" x1="311.948" x2="286.372" y1="300.336" y2="336.794" gradientUnits="userSpaceOnUse">
      <stop stop-color="#fff"/>
      <stop offset=".513" stop-color="#A2A2A2"/>
      <stop offset="1" stop-color="#fff"/>
    </linearGradient>
    <clipPath id="a">
      <path fill="#fff" d="M0 0h390v782H0z"/>
    </clipPath>
  </defs>
</svg>