<svg width="402" height="642" viewBox="0 0 402 642" fill="none" xmlns="http://www.w3.org/2000/svg">
<g filter="url(#filter0_d_1009_319808)">
<g clip-path="url(#clip0_1009_319808)">
<path d="M21 25C21 18.3726 26.3726 13 33 13H369C375.627 13 381 18.3726 381 25V601C381 607.627 375.627 613 369 613H33C26.3726 613 21 607.627 21 601V25Z" fill="#0B1821"/>
<g opacity="0.5" filter="url(#filter1_f_1009_319808)">
<circle cx="175" cy="152" r="78" fill="#00FFFF"/>
</g>
<g opacity="0.5" filter="url(#filter2_f_1009_319808)">
<ellipse cx="214" cy="199" rx="39" ry="78" fill="#0038FF"/>
</g>
<rect x="137" y="112" width="128" height="128" rx="27.6757" fill="#0B1821"/>
<path d="M165.656 211.343H236.343V179.534H179.794C171.986 179.534 165.656 185.863 165.656 193.671V211.343Z" fill="#00FFFF"/>
<path d="M236.343 140.656H165.656V172.465H222.205C230.013 172.465 236.343 166.136 236.343 158.328V140.656Z" fill="#00FFFF"/>
<path d="M179.043 284.869H183.071L185.735 281.045H178.409V278.295H189.688V280.443L186.605 284.869H188.657V287.598H184.693L182.169 291.25H189.892V294H178.205V291.841L181.181 287.598H179.043V284.869ZM197.49 294.22C196.199 294.22 195.077 293.963 194.124 293.45C193.17 292.922 192.43 292.211 191.902 291.316C191.374 290.407 191.11 289.373 191.11 288.214C191.11 287.319 191.256 286.498 191.55 285.75C191.843 285.002 192.254 284.357 192.782 283.814C193.31 283.257 193.933 282.831 194.652 282.538C195.385 282.23 196.184 282.076 197.05 282.076C197.871 282.076 198.619 282.223 199.294 282.516C199.983 282.809 200.577 283.22 201.076 283.748C201.574 284.276 201.956 284.899 202.22 285.618C202.484 286.337 202.601 287.121 202.572 287.972L202.55 288.918H193.244L192.738 286.938H199.69L199.316 287.356V286.916C199.286 286.549 199.169 286.227 198.964 285.948C198.773 285.655 198.516 285.427 198.194 285.266C197.871 285.105 197.504 285.024 197.094 285.024C196.522 285.024 196.03 285.141 195.62 285.376C195.224 285.596 194.923 285.926 194.718 286.366C194.512 286.791 194.41 287.319 194.41 287.95C194.41 288.595 194.542 289.16 194.806 289.644C195.084 290.113 195.48 290.48 195.994 290.744C196.522 291.008 197.145 291.14 197.864 291.14C198.362 291.14 198.802 291.067 199.184 290.92C199.58 290.773 200.005 290.524 200.46 290.172L202.11 292.504C201.655 292.9 201.171 293.223 200.658 293.472C200.144 293.721 199.616 293.905 199.074 294.022C198.546 294.154 198.018 294.22 197.49 294.22ZM209.069 294.198C208.086 294.198 207.206 293.941 206.429 293.428C205.666 292.9 205.058 292.181 204.603 291.272C204.148 290.348 203.921 289.307 203.921 288.148C203.921 286.96 204.148 285.911 204.603 285.002C205.058 284.093 205.681 283.381 206.473 282.868C207.265 282.34 208.167 282.076 209.179 282.076C209.736 282.076 210.242 282.157 210.697 282.318C211.166 282.479 211.577 282.707 211.929 283C212.281 283.279 212.582 283.609 212.831 283.99C213.08 284.357 213.264 284.753 213.381 285.178L212.655 285.09V282.318H216.153V294H212.589V291.184L213.381 291.162C213.264 291.573 213.073 291.961 212.809 292.328C212.545 292.695 212.222 293.017 211.841 293.296C211.46 293.575 211.034 293.795 210.565 293.956C210.096 294.117 209.597 294.198 209.069 294.198ZM210.037 291.228C210.58 291.228 211.049 291.103 211.445 290.854C211.841 290.605 212.149 290.253 212.369 289.798C212.589 289.329 212.699 288.779 212.699 288.148C212.699 287.517 212.589 286.975 212.369 286.52C212.149 286.051 211.841 285.691 211.445 285.442C211.049 285.178 210.58 285.046 210.037 285.046C209.509 285.046 209.047 285.178 208.651 285.442C208.27 285.691 207.969 286.051 207.749 286.52C207.529 286.975 207.419 287.517 207.419 288.148C207.419 288.779 207.529 289.329 207.749 289.798C207.969 290.253 208.27 290.605 208.651 290.854C209.047 291.103 209.509 291.228 210.037 291.228ZM219.224 294V277.72H222.744V294H219.224Z" fill="white"/>
<path d="M116.796 322V313.656H114.052V312.2H121.136V313.656H118.308V322H116.796ZM122.576 322V311.64H124.018V316.162L123.766 316.33C123.86 316.003 124.042 315.705 124.312 315.434C124.583 315.154 124.905 314.93 125.278 314.762C125.652 314.585 126.034 314.496 126.426 314.496C126.986 314.496 127.453 314.608 127.826 314.832C128.2 315.047 128.48 315.378 128.666 315.826C128.853 316.274 128.946 316.839 128.946 317.52V322H127.504V317.618C127.504 317.198 127.448 316.853 127.336 316.582C127.224 316.302 127.052 316.101 126.818 315.98C126.585 315.849 126.296 315.793 125.95 315.812C125.67 315.812 125.414 315.859 125.18 315.952C124.947 316.036 124.742 316.157 124.564 316.316C124.396 316.475 124.261 316.661 124.158 316.876C124.065 317.081 124.018 317.305 124.018 317.548V322H123.304C123.183 322 123.062 322 122.94 322C122.819 322 122.698 322 122.576 322ZM134.272 322.14C133.516 322.14 132.844 321.981 132.256 321.664C131.678 321.337 131.22 320.894 130.884 320.334C130.558 319.774 130.394 319.13 130.394 318.402C130.394 317.823 130.488 317.296 130.674 316.82C130.861 316.344 131.118 315.933 131.444 315.588C131.78 315.233 132.177 314.963 132.634 314.776C133.101 314.58 133.605 314.482 134.146 314.482C134.622 314.482 135.066 314.575 135.476 314.762C135.887 314.939 136.242 315.187 136.54 315.504C136.848 315.821 137.082 316.199 137.24 316.638C137.408 317.067 137.488 317.539 137.478 318.052L137.464 318.668H131.458L131.136 317.52H136.218L136.008 317.758V317.422C135.98 317.114 135.878 316.839 135.7 316.596C135.523 316.353 135.299 316.162 135.028 316.022C134.758 315.882 134.464 315.812 134.146 315.812C133.642 315.812 133.218 315.91 132.872 316.106C132.527 316.293 132.266 316.573 132.088 316.946C131.911 317.31 131.822 317.763 131.822 318.304C131.822 318.817 131.93 319.265 132.144 319.648C132.359 320.021 132.662 320.311 133.054 320.516C133.446 320.721 133.899 320.824 134.412 320.824C134.776 320.824 135.112 320.763 135.42 320.642C135.738 320.521 136.078 320.301 136.442 319.984L137.17 321.006C136.946 321.23 136.671 321.426 136.344 321.594C136.027 321.762 135.686 321.897 135.322 322C134.968 322.093 134.618 322.14 134.272 322.14ZM145.677 322.14C145.07 322.14 144.515 321.972 144.011 321.636C143.516 321.3 143.119 320.843 142.821 320.264C142.522 319.685 142.373 319.032 142.373 318.304C142.373 317.567 142.522 316.913 142.821 316.344C143.129 315.765 143.539 315.313 144.053 314.986C144.575 314.659 145.159 314.496 145.803 314.496C146.185 314.496 146.535 314.552 146.853 314.664C147.17 314.776 147.445 314.935 147.679 315.14C147.921 315.336 148.117 315.565 148.267 315.826C148.425 316.087 148.523 316.367 148.561 316.666L148.239 316.554V314.65H149.695V322H148.239V320.25L148.575 320.152C148.519 320.404 148.402 320.651 148.225 320.894C148.057 321.127 147.837 321.337 147.567 321.524C147.305 321.711 147.011 321.86 146.685 321.972C146.367 322.084 146.031 322.14 145.677 322.14ZM146.055 320.81C146.493 320.81 146.881 320.703 147.217 320.488C147.553 320.273 147.814 319.979 148.001 319.606C148.197 319.223 148.295 318.789 148.295 318.304C148.295 317.828 148.197 317.403 148.001 317.03C147.814 316.657 147.553 316.363 147.217 316.148C146.881 315.933 146.493 315.826 146.055 315.826C145.625 315.826 145.243 315.933 144.907 316.148C144.58 316.363 144.319 316.657 144.123 317.03C143.936 317.403 143.843 317.828 143.843 318.304C143.843 318.789 143.936 319.223 144.123 319.606C144.319 319.979 144.58 320.273 144.907 320.488C145.243 320.703 145.625 320.81 146.055 320.81ZM151.676 322V311.64H153.118V322H151.676ZM155.129 322V311.64H156.571V322H155.129ZM158.289 318.71V317.282H162.321V318.71H158.289ZM164.242 322V314.65H165.684V322H164.242ZM164.942 313.026C164.634 313.026 164.396 312.947 164.228 312.788C164.06 312.629 163.976 312.405 163.976 312.116C163.976 311.845 164.06 311.626 164.228 311.458C164.406 311.29 164.644 311.206 164.942 311.206C165.25 311.206 165.488 311.285 165.656 311.444C165.824 311.603 165.908 311.827 165.908 312.116C165.908 312.387 165.82 312.606 165.642 312.774C165.474 312.942 165.241 313.026 164.942 313.026ZM167.841 322V314.65H169.283V316.162L169.031 316.33C169.124 316.003 169.306 315.705 169.577 315.434C169.847 315.154 170.169 314.93 170.543 314.762C170.916 314.585 171.299 314.496 171.691 314.496C172.251 314.496 172.717 314.608 173.091 314.832C173.464 315.047 173.744 315.378 173.931 315.826C174.117 316.274 174.211 316.839 174.211 317.52V322H172.769V317.618C172.769 317.198 172.713 316.853 172.601 316.582C172.489 316.302 172.316 316.101 172.083 315.98C171.849 315.849 171.56 315.793 171.215 315.812C170.935 315.812 170.678 315.859 170.445 315.952C170.211 316.036 170.006 316.157 169.829 316.316C169.661 316.475 169.525 316.661 169.423 316.876C169.329 317.081 169.283 317.305 169.283 317.548V322H168.569C168.447 322 168.326 322 168.205 322C168.083 322 167.962 322 167.841 322ZM175.841 318.71V317.282H179.873V318.71H175.841ZM184.86 322.14C184.142 322.14 183.498 321.977 182.928 321.65C182.368 321.314 181.925 320.861 181.598 320.292C181.272 319.713 181.108 319.055 181.108 318.318C181.108 317.581 181.272 316.927 181.598 316.358C181.925 315.779 182.368 315.327 182.928 315C183.498 314.664 184.142 314.496 184.86 314.496C185.57 314.496 186.204 314.664 186.764 315C187.334 315.327 187.782 315.779 188.108 316.358C188.435 316.927 188.598 317.581 188.598 318.318C188.598 319.055 188.435 319.713 188.108 320.292C187.782 320.861 187.334 321.314 186.764 321.65C186.204 321.977 185.57 322.14 184.86 322.14ZM184.86 320.824C185.299 320.824 185.691 320.717 186.036 320.502C186.382 320.278 186.652 319.979 186.848 319.606C187.044 319.223 187.138 318.794 187.128 318.318C187.138 317.833 187.044 317.403 186.848 317.03C186.652 316.647 186.382 316.349 186.036 316.134C185.691 315.919 185.299 315.812 184.86 315.812C184.422 315.812 184.025 315.924 183.67 316.148C183.325 316.363 183.054 316.661 182.858 317.044C182.662 317.417 182.569 317.842 182.578 318.318C182.569 318.794 182.662 319.223 182.858 319.606C183.054 319.979 183.325 320.278 183.67 320.502C184.025 320.717 184.422 320.824 184.86 320.824ZM190.109 322V314.65H191.551V316.162L191.299 316.33C191.393 316.003 191.575 315.705 191.845 315.434C192.116 315.154 192.438 314.93 192.811 314.762C193.185 314.585 193.567 314.496 193.959 314.496C194.519 314.496 194.986 314.608 195.359 314.832C195.733 315.047 196.013 315.378 196.199 315.826C196.386 316.274 196.479 316.839 196.479 317.52V322H195.037V317.618C195.037 317.198 194.981 316.853 194.869 316.582C194.757 316.302 194.585 316.101 194.351 315.98C194.118 315.849 193.829 315.793 193.483 315.812C193.203 315.812 192.947 315.859 192.713 315.952C192.48 316.036 192.275 316.157 192.097 316.316C191.929 316.475 191.794 316.661 191.691 316.876C191.598 317.081 191.551 317.305 191.551 317.548V322H190.837C190.716 322 190.595 322 190.473 322C190.352 322 190.231 322 190.109 322ZM201.805 322.14C201.049 322.14 200.377 321.981 199.789 321.664C199.211 321.337 198.753 320.894 198.417 320.334C198.091 319.774 197.927 319.13 197.927 318.402C197.927 317.823 198.021 317.296 198.207 316.82C198.394 316.344 198.651 315.933 198.977 315.588C199.313 315.233 199.71 314.963 200.167 314.776C200.634 314.58 201.138 314.482 201.679 314.482C202.155 314.482 202.599 314.575 203.009 314.762C203.42 314.939 203.775 315.187 204.073 315.504C204.381 315.821 204.615 316.199 204.773 316.638C204.941 317.067 205.021 317.539 205.011 318.052L204.997 318.668H198.991L198.669 317.52H203.751L203.541 317.758V317.422C203.513 317.114 203.411 316.839 203.233 316.596C203.056 316.353 202.832 316.162 202.561 316.022C202.291 315.882 201.997 315.812 201.679 315.812C201.175 315.812 200.751 315.91 200.405 316.106C200.06 316.293 199.799 316.573 199.621 316.946C199.444 317.31 199.355 317.763 199.355 318.304C199.355 318.817 199.463 319.265 199.677 319.648C199.892 320.021 200.195 320.311 200.587 320.516C200.979 320.721 201.432 320.824 201.945 320.824C202.309 320.824 202.645 320.763 202.953 320.642C203.271 320.521 203.611 320.301 203.975 319.984L204.703 321.006C204.479 321.23 204.204 321.426 203.877 321.594C203.56 321.762 203.219 321.897 202.855 322C202.501 322.093 202.151 322.14 201.805 322.14ZM212.188 322L209.682 314.65L211.138 314.636L212.93 320.138L212.608 320.11L214.554 315.812H215.422L217.382 320.124L217.004 320.152L218.81 314.65H220.266L217.788 322H216.794L214.75 317.324L215.072 317.366L213.168 322H212.188ZM224.744 322.14C223.988 322.14 223.316 321.981 222.728 321.664C222.149 321.337 221.692 320.894 221.356 320.334C221.029 319.774 220.866 319.13 220.866 318.402C220.866 317.823 220.959 317.296 221.146 316.82C221.333 316.344 221.589 315.933 221.916 315.588C222.252 315.233 222.649 314.963 223.106 314.776C223.573 314.58 224.077 314.482 224.618 314.482C225.094 314.482 225.537 314.575 225.948 314.762C226.359 314.939 226.713 315.187 227.012 315.504C227.32 315.821 227.553 316.199 227.712 316.638C227.88 317.067 227.959 317.539 227.95 318.052L227.936 318.668H221.93L221.608 317.52H226.69L226.48 317.758V317.422C226.452 317.114 226.349 316.839 226.172 316.596C225.995 316.353 225.771 316.162 225.5 316.022C225.229 315.882 224.935 315.812 224.618 315.812C224.114 315.812 223.689 315.91 223.344 316.106C222.999 316.293 222.737 316.573 222.56 316.946C222.383 317.31 222.294 317.763 222.294 318.304C222.294 318.817 222.401 319.265 222.616 319.648C222.831 320.021 223.134 320.311 223.526 320.516C223.918 320.721 224.371 320.824 224.884 320.824C225.248 320.824 225.584 320.763 225.892 320.642C226.209 320.521 226.55 320.301 226.914 319.984L227.642 321.006C227.418 321.23 227.143 321.426 226.816 321.594C226.499 321.762 226.158 321.897 225.794 322C225.439 322.093 225.089 322.14 224.744 322.14ZM233.321 322.14C233.003 322.14 232.686 322.089 232.369 321.986C232.061 321.883 231.776 321.748 231.515 321.58C231.263 321.403 231.048 321.211 230.871 321.006C230.703 320.791 230.591 320.577 230.535 320.362L230.899 320.166V321.958H229.457V311.64H230.899V316.33L230.675 316.204C230.721 315.989 230.824 315.784 230.983 315.588C231.141 315.383 231.342 315.201 231.585 315.042C231.837 314.874 232.107 314.743 232.397 314.65C232.686 314.547 232.98 314.496 233.279 314.496C233.941 314.496 234.529 314.659 235.043 314.986C235.556 315.313 235.962 315.765 236.261 316.344C236.559 316.913 236.709 317.567 236.709 318.304C236.709 319.041 236.559 319.699 236.261 320.278C235.971 320.857 235.57 321.314 235.057 321.65C234.543 321.977 233.965 322.14 233.321 322.14ZM233.083 320.824C233.512 320.824 233.895 320.717 234.231 320.502C234.567 320.278 234.833 319.979 235.029 319.606C235.225 319.223 235.323 318.789 235.323 318.304C235.323 317.828 235.225 317.403 235.029 317.03C234.842 316.647 234.581 316.349 234.245 316.134C233.909 315.919 233.521 315.812 233.083 315.812C232.644 315.812 232.257 315.919 231.921 316.134C231.585 316.349 231.319 316.647 231.123 317.03C230.927 317.403 230.829 317.828 230.829 318.304C230.829 318.789 230.927 319.223 231.123 319.606C231.319 319.979 231.585 320.278 231.921 320.502C232.257 320.717 232.644 320.824 233.083 320.824ZM240.721 322.14C240.03 322.14 239.428 321.981 238.915 321.664C238.411 321.347 237.935 320.815 237.487 320.068L238.663 319.326C238.896 319.671 239.125 319.956 239.349 320.18C239.582 320.395 239.82 320.553 240.063 320.656C240.306 320.759 240.562 320.81 240.833 320.81C241.16 320.81 241.463 320.731 241.743 320.572C242.023 320.404 242.247 320.175 242.415 319.886C242.583 319.597 242.667 319.27 242.667 318.906C242.667 318.542 242.602 318.234 242.471 317.982C242.34 317.721 242.149 317.525 241.897 317.394C241.645 317.254 241.346 317.184 241.001 317.184C240.842 317.184 240.674 317.203 240.497 317.24C240.329 317.268 240.147 317.315 239.951 317.38C239.755 317.436 239.54 317.511 239.307 317.604L238.887 316.498L241.911 313.166L242.205 313.6H238.033V312.2H243.647L243.927 312.76L240.721 316.316L240.371 315.952C240.446 315.915 240.567 315.882 240.735 315.854C240.912 315.817 241.057 315.798 241.169 315.798C241.58 315.798 241.962 315.877 242.317 316.036C242.681 316.185 242.994 316.4 243.255 316.68C243.526 316.951 243.736 317.273 243.885 317.646C244.044 318.01 244.123 318.402 244.123 318.822C244.123 319.457 243.969 320.026 243.661 320.53C243.362 321.025 242.956 321.417 242.443 321.706C241.93 321.995 241.356 322.14 240.721 322.14ZM251.235 322L248.729 314.65L250.185 314.636L251.977 320.138L251.655 320.11L253.601 315.812H254.469L256.429 320.124L256.051 320.152L257.857 314.65H259.313L256.835 322H255.841L253.797 317.324L254.119 317.366L252.215 322H251.235ZM263.189 322.14C262.582 322.14 262.027 321.972 261.523 321.636C261.028 321.3 260.631 320.843 260.333 320.264C260.034 319.685 259.885 319.032 259.885 318.304C259.885 317.567 260.034 316.913 260.333 316.344C260.641 315.765 261.051 315.313 261.565 314.986C262.087 314.659 262.671 314.496 263.315 314.496C263.697 314.496 264.047 314.552 264.365 314.664C264.682 314.776 264.957 314.935 265.191 315.14C265.433 315.336 265.629 315.565 265.779 315.826C265.937 316.087 266.035 316.367 266.073 316.666L265.751 316.554V314.65H267.207V322H265.751V320.25L266.087 320.152C266.031 320.404 265.914 320.651 265.737 320.894C265.569 321.127 265.349 321.337 265.079 321.524C264.817 321.711 264.523 321.86 264.197 321.972C263.879 322.084 263.543 322.14 263.189 322.14ZM263.567 320.81C264.005 320.81 264.393 320.703 264.729 320.488C265.065 320.273 265.326 319.979 265.513 319.606C265.709 319.223 265.807 318.789 265.807 318.304C265.807 317.828 265.709 317.403 265.513 317.03C265.326 316.657 265.065 316.363 264.729 316.148C264.393 315.933 264.005 315.826 263.567 315.826C263.137 315.826 262.755 315.933 262.419 316.148C262.092 316.363 261.831 316.657 261.635 317.03C261.448 317.403 261.355 317.828 261.355 318.304C261.355 318.789 261.448 319.223 261.635 319.606C261.831 319.979 262.092 320.273 262.419 320.488C262.755 320.703 263.137 320.81 263.567 320.81ZM269.188 322V311.64H270.63V322H269.188ZM272.641 322V311.64H274.083V322H272.641ZM279.36 322.14C278.604 322.14 277.932 321.981 277.344 321.664C276.765 321.337 276.308 320.894 275.972 320.334C275.645 319.774 275.482 319.13 275.482 318.402C275.482 317.823 275.575 317.296 275.762 316.82C275.949 316.344 276.205 315.933 276.532 315.588C276.868 315.233 277.265 314.963 277.722 314.776C278.189 314.58 278.693 314.482 279.234 314.482C279.71 314.482 280.153 314.575 280.564 314.762C280.975 314.939 281.329 315.187 281.628 315.504C281.936 315.821 282.169 316.199 282.328 316.638C282.496 317.067 282.575 317.539 282.566 318.052L282.552 318.668H276.546L276.224 317.52H281.306L281.096 317.758V317.422C281.068 317.114 280.965 316.839 280.788 316.596C280.611 316.353 280.387 316.162 280.116 316.022C279.845 315.882 279.551 315.812 279.234 315.812C278.73 315.812 278.305 315.91 277.96 316.106C277.615 316.293 277.353 316.573 277.176 316.946C276.999 317.31 276.91 317.763 276.91 318.304C276.91 318.817 277.017 319.265 277.232 319.648C277.447 320.021 277.75 320.311 278.142 320.516C278.534 320.721 278.987 320.824 279.5 320.824C279.864 320.824 280.2 320.763 280.508 320.642C280.825 320.521 281.166 320.301 281.53 319.984L282.258 321.006C282.034 321.23 281.759 321.426 281.432 321.594C281.115 321.762 280.774 321.897 280.41 322C280.055 322.093 279.705 322.14 279.36 322.14ZM284.983 322V312.774H286.425V322H284.983ZM283.457 316.05V314.65H288.133V316.05H283.457Z" fill="#CBD2D9"/>
</g>
</g>
<defs>
<filter id="filter0_d_1009_319808" x="0" y="0" width="402" height="642" filterUnits="userSpaceOnUse" color-interpolation-filters="sRGB">
<feFlood flood-opacity="0" result="BackgroundImageFix"/>
<feColorMatrix in="SourceAlpha" type="matrix" values="0 0 0 0 0 0 0 0 0 0 0 0 0 0 0 0 0 0 127 0" result="hardAlpha"/>
<feMorphology radius="4" operator="dilate" in="SourceAlpha" result="effect1_dropShadow_1009_319808"/>
<feOffset dy="8"/>
<feGaussianBlur stdDeviation="8.5"/>
<feComposite in2="hardAlpha" operator="out"/>
<feColorMatrix type="matrix" values="0 0 0 0 0.0316875 0 0 0 0 0.0135417 0 0 0 0 0.0833333 0 0 0 0.12 0"/>
<feBlend mode="normal" in2="BackgroundImageFix" result="effect1_dropShadow_1009_319808"/>
<feBlend mode="normal" in="SourceGraphic" in2="effect1_dropShadow_1009_319808" result="shape"/>
</filter>
<filter id="filter1_f_1009_319808" x="-27" y="-50" width="404" height="404" filterUnits="userSpaceOnUse" color-interpolation-filters="sRGB">
<feFlood flood-opacity="0" result="BackgroundImageFix"/>
<feBlend mode="normal" in="SourceGraphic" in2="BackgroundImageFix" result="shape"/>
<feGaussianBlur stdDeviation="62" result="effect1_foregroundBlur_1009_319808"/>
</filter>
<filter id="filter2_f_1009_319808" x="51" y="-3" width="326" height="404" filterUnits="userSpaceOnUse" color-interpolation-filters="sRGB">
<feFlood flood-opacity="0" result="BackgroundImageFix"/>
<feBlend mode="normal" in="SourceGraphic" in2="BackgroundImageFix" result="shape"/>
<feGaussianBlur stdDeviation="62" result="effect1_foregroundBlur_1009_319808"/>
</filter>
<clipPath id="clip0_1009_319808">
<path d="M21 25C21 18.3726 26.3726 13 33 13H369C375.627 13 381 18.3726 381 25V601C381 607.627 375.627 613 369 613H33C26.3726 613 21 607.627 21 601V25Z" fill="white"/>
</clipPath>
</defs>
</svg>
